<svg width="400" height="300" viewBox="0 0 400 300" fill="none" xmlns="http://www.w3.org/2000/svg">
  <!-- Background -->
  <rect width="400" height="300" fill="#F8FAFC"/>
  
  <!-- Person figure -->
  <circle cx="200" cy="120" r="25" fill="#3b82f6"/>
  <rect x="185" y="145" width="30" height="40" rx="15" fill="#3b82f6"/>
  <rect x="175" y="185" width="50" height="15" rx="7" fill="#3b82f6"/>
  
  <!-- Arms -->
  <rect x="160" y="150" width="8" height="25" rx="4" fill="#3b82f6"/>
  <rect x="232" y="150" width="8" height="25" rx="4" fill="#3b82f6"/>
  
  <!-- Document/form -->
  <rect x="280" y="160" width="60" height="80" rx="4" fill="white" stroke="#3b82f6" stroke-width="2"/>
  <rect x="290" y="170" width="40" height="3" fill="#3b82f6" opacity="0.6"/>
  <rect x="290" y="180" width="35" height="3" fill="#3b82f6" opacity="0.6"/>
  <rect x="290" y="190" width="30" height="3" fill="#3b82f6" opacity="0.6"/>
  <rect x="290" y="200" width="25" height="3" fill="#3b82f6" opacity="0.6"/>
  
  <!-- House -->
  <rect x="80" y="180" width="60" height="40" fill="#3b82f6" opacity="0.7"/>
  <polygon points="80,180 110,150 140,180" fill="#3b82f6" opacity="0.8"/>
  <rect x="95" y="200" width="15" height="20" fill="white"/>
  <rect x="105" y="205" width="5" height="10" fill="#3b82f6" opacity="0.6"/>
  
  <!-- Car -->
  <rect x="300" y="200" width="50" height="20" rx="10" fill="#3b82f6" opacity="0.6"/>
  <circle cx="315" cy="225" r="8" fill="#3b82f6" opacity="0.8"/>
  <circle cx="335" cy="225" r="8" fill="#3b82f6" opacity="0.8"/>
  <rect x="310" y="195" width="30" height="10" rx="5" fill="#3b82f6" opacity="0.5"/>
  
  <!-- Money bag -->
  <ellipse cx="120" cy="200" rx="15" ry="20" fill="#3b82f6" opacity="0.6"/>
  <rect x="115" y="180" width="10" height="8" rx="2" fill="#3b82f6" opacity="0.6"/>
  <text x="120" y="205" font-family="Arial" font-size="12" font-weight="bold" fill="white" text-anchor="middle">₹</text>
  
  <!-- Approval checkmark -->
  <circle cx="320" cy="100" r="20" fill="#3b82f6" opacity="0.8"/>
  <path d="M310 100 L315 105 L325 95" stroke="white" stroke-width="3" fill="none" stroke-linecap="round" stroke-linejoin="round"/>
  
  <!-- Clock for quick processing -->
  <circle cx="100" cy="100" r="20" fill="#3b82f6" opacity="0.6"/>
  <circle cx="100" cy="100" r="15" fill="white"/>
  <path d="M100 100 L100 90" stroke="#3b82f6" stroke-width="2" stroke-linecap="round"/>
  <path d="M100 100 L105 100" stroke="#3b82f6" stroke-width="2" stroke-linecap="round"/>
</svg>
