<svg id="Layer_1" data-name="Layer 1" xmlns="http://www.w3.org/2000/svg" viewBox="0 0 50 50"><defs><style>.cls-1{fill:none;}.cls-2{fill:#1268c0;}</style></defs><rect class="cls-1" width="50" height="50"/><path class="cls-2" d="M8.6,27.2a.9.9,0,0,0-1.7,0L2.7,34.1c-.5.7-.1,1.4.8,1.4h.2a1.6,1.6,0,0,1,1.7,1.6v6.1a1.8,1.8,0,0,0,1.7,1.7H8.5a1.7,1.7,0,0,0,1.6-1.7V37.1a1.7,1.7,0,0,1,1.7-1.6H12c.9,0,1.3-.7.8-1.4ZM20,19.8a1,1,0,0,0-1.8,0l-4.1,6.8c-.5.8-.2,1.4.8,1.4h.2a1.8,1.8,0,0,1,1.7,1.7V43.2a1.7,1.7,0,0,0,1.6,1.7h1.4a1.8,1.8,0,0,0,1.7-1.7V29.7A1.7,1.7,0,0,1,23.1,28h.3c.9,0,1.2-.6.8-1.4Zm13,3a1.7,1.7,0,0,1,1.6-1.4h.3c.9,0,1.3-.6.8-1.4l-4.2-6.8c-.5-.8-1.3-.8-1.7,0L25.6,20c-.5.8-.1,1.4.8,1.4h.2a1.7,1.7,0,0,1,1.7,1.7v3.8A8.6,8.6,0,0,1,33,22.8ZM28.3,34.9v8.3a1.7,1.7,0,0,0,1.6,1.7h1.4A1.8,1.8,0,0,0,33,43.2V39A8.6,8.6,0,0,1,28.3,34.9Zm19-22.4L43.1,5.7c-.5-.8-1.3-.8-1.7,0l-4.2,6.8c-.5.8-.1,1.4.8,1.4h.2a1.8,1.8,0,0,1,1.7,1.7v7.6a8.9,8.9,0,0,1,4.6,7.7,8.6,8.6,0,0,1-4.6,7.6v4.7a1.7,1.7,0,0,0,1.6,1.7h1.4a1.8,1.8,0,0,0,1.7-1.7V15.6a1.7,1.7,0,0,1,1.7-1.7h.2C47.4,13.9,47.8,13.3,47.3,12.5ZM35.9,23.9a7,7,0,1,0,7,7A7,7,0,0,0,35.9,23.9ZM39.2,28c0,.1-.1.2-.3.2H37.5l.3.6h1.1c.2,0,.3.1.3.2v.8c0,.1-.1.2-.3.2h-1a2.7,2.7,0,0,1-2.7,2.5l3,2.7a.3.3,0,0,1,0,.4H36.3l-3.2-3a.1.1,0,0,1-.1-.1V31.4l.2-.2h1.6A1.5,1.5,0,0,0,36.3,30H33.2a.2.2,0,0,1-.2-.2h0V29a.2.2,0,0,1,.2-.2H36a1.3,1.3,0,0,0-1.1-.6H33.2A.2.2,0,0,1,33,28v-.8a.2.2,0,0,1,.2-.2h5.7c.2,0,.3.1.3.2Z"/></svg>