<svg width="510" height="510" viewBox="0 0 510 657" fill="none" xmlns="http://www.w3.org/2000/svg">
<mask id="mask0_1140_9936" style="mask-type:alpha" maskUnits="userSpaceOnUse" x="0" y="0">
<rect width="510" height="656.368" rx="15" fill="black"/>
</mask>
<g mask="url(#mask0_1140_9936)">
<path d="M394.43 180.005C387.683 171.773 376.82 165.823 365.96 167.66C354.823 169.543 346.95 179.389 343.933 189.703C342.177 195.934 341.35 202.391 341.48 208.863C341.501 214.697 341.875 220.525 342.602 226.313C353.423 224.318 364.416 223.418 375.417 223.628L375.48 223.643L375.562 223.628C388.283 223.649 400.926 225.646 413.035 229.542C407.498 209.051 404.037 191.727 394.43 180.005ZM378.787 208.121C376.229 213.079 369.506 214.941 364.258 214.781C364.094 214.777 363.932 214.736 363.785 214.662C363.638 214.587 363.51 214.48 363.411 214.349C363.311 214.218 363.242 214.066 363.209 213.905C363.176 213.743 363.18 213.576 363.22 213.417C364.264 210.495 364.754 207.405 364.666 204.304C364.062 204.395 363.444 204.552 362.876 204.606C359.91 204.862 356.926 204.739 353.993 204.238C353.767 204.173 353.568 204.037 353.426 203.85C353.283 203.663 353.205 203.435 353.203 203.2C353.145 201.096 353.528 199.003 354.328 197.056C358 188.306 371.591 188.1 377.261 194.863C378.787 196.679 379.746 198.905 380.017 201.262C380.289 203.62 379.861 206.005 378.787 208.121Z" fill="black"/>
<path d="M301.685 451.749C298.486 453.461 294.958 454.47 291.338 454.709C289.968 454.8 248.713 454.76 230.956 454.76C230.46 460.359 230.186 465.975 230.135 471.595H297.994C298.28 471.595 298.554 471.708 298.756 471.91C298.958 472.112 299.072 472.386 299.072 472.672C299.072 472.958 298.958 473.232 298.756 473.434C298.554 473.636 298.28 473.749 297.994 473.749H230.102C230.173 484.544 230.885 495.325 232.232 506.036C232.899 513.009 233.629 518.495 239.172 525.118C252.636 541.192 275.714 540.564 293.263 530.269C296.551 528.383 299.547 526.03 302.158 523.283C301.437 522 300.887 520.627 300.523 519.201C298.954 513.281 300.122 504.204 300.957 498.13C301.003 497.807 307.089 457.714 312.897 442.021C309.639 445.778 305.864 449.053 301.685 451.749Z" fill="#E4F8EA"/>
<path d="M92.6902 471.595H164.031C161.919 460.979 158.428 450.473 150.607 443.231C143.259 436.426 133.205 433.548 123.55 430.889L89.4978 421.511C89.3348 421.55 46.626 431.807 46.3484 431.87C59.4723 444.401 70.3995 459.046 78.6742 475.194C80.965 479.554 82.4348 484.298 83.0103 489.189C83.2084 491.487 83.0804 493.801 82.6301 496.063C80.5792 504.572 75.9128 512.224 69.287 517.943C71.9574 520.48 71.9664 521.847 83.662 555.422C87.3795 566.101 90.6263 569.526 104.039 569.966C113.824 570.295 123.622 570.096 133.383 569.363C145.58 568.442 161.78 565.591 167.459 554.668C168.756 551.426 169.372 547.953 169.27 544.463C170.069 520.794 168.451 497.105 164.442 473.764H92.6902C92.4887 473.745 92.2966 473.67 92.1352 473.548C91.9738 473.425 91.8496 473.261 91.7764 473.072C91.7031 472.883 91.6838 472.678 91.7205 472.479C91.7571 472.28 91.8484 472.095 91.9841 471.945C92.1677 471.744 92.4195 471.619 92.6902 471.595ZM144.436 447.102L149.146 456.417C149.771 457.654 147.912 458.743 147.288 457.503C145.716 454.398 144.144 451.293 142.578 448.188C141.944 446.945 143.812 445.856 144.436 447.102Z" fill="white"/>
<path d="M436.661 406.714C428.289 405.64 420.061 403.644 412.127 400.763C412.889 404.84 412.01 409.052 409.679 412.483C407.465 414.996 404.462 416.681 401.164 417.264C397.866 417.846 394.467 417.29 391.527 415.687C389.755 414.566 388.254 413.066 387.13 411.295C386.007 409.524 385.29 407.527 385.03 405.446C380.67 415.603 365.039 417.676 359.21 408.177C356.564 403.821 355.21 398.804 355.305 393.708C350.55 401.251 344.235 407.688 336.784 412.586C336.784 417.736 336.92 418.002 336.513 418.43C336.31 418.732 337.101 417.773 316.797 438.137C311.721 449.809 308.882 464.265 306.368 478.305C304.558 488.441 299.244 511.09 303.303 520.721C305.442 524.704 308.354 528.221 311.867 531.066C315.38 533.912 319.424 536.03 323.764 537.296C323.954 537.359 324.122 537.474 324.25 537.627C324.379 537.781 324.462 537.967 324.49 538.165C324.519 538.363 324.492 538.565 324.412 538.748C324.332 538.932 324.203 539.089 324.038 539.203C323.818 539.357 323.547 539.42 323.281 539.381C345.96 546.095 375.395 545.25 388.256 525.38C395.335 514.445 397.911 499.114 406.502 479.087C410.805 469.063 414.148 466.848 420.883 460.68C427.797 454.998 433.249 447.742 436.782 439.519C440.669 429.1 439.434 417.435 436.661 406.714ZM325.764 449.389C327.499 446.275 329.288 443.19 331.129 440.138C331.201 440.015 331.295 439.908 331.408 439.822C331.521 439.736 331.65 439.673 331.787 439.637C331.924 439.601 332.067 439.593 332.207 439.613C332.348 439.632 332.483 439.679 332.605 439.752C332.851 439.896 333.029 440.132 333.102 440.408C333.174 440.684 333.134 440.977 332.991 441.224C331.252 444.336 329.464 447.42 327.626 450.475C327.468 450.692 327.235 450.843 326.973 450.898C326.71 450.953 326.436 450.909 326.204 450.774C325.973 450.638 325.799 450.422 325.718 450.166C325.637 449.91 325.653 449.633 325.764 449.389Z" fill="#E4F8EA"/>
<path d="M462.42 265.151C448.738 246.643 429.105 233.405 406.818 227.659C396.603 225.04 386.105 223.686 375.56 223.628L375.479 223.643C375.636 223.657 375.788 223.705 375.926 223.783C376.063 223.861 376.182 223.967 376.275 224.095C376.369 224.223 376.433 224.369 376.464 224.524C376.495 224.678 376.491 224.838 376.453 224.991C376.013 229.041 374.965 233.001 373.345 236.738C371.233 241.53 367.844 242.511 365.068 241.213C359.984 238.835 358.786 230.737 358.958 225.142C358.965 224.879 359.066 224.627 359.244 224.434C359.423 224.24 359.665 224.118 359.927 224.089C359.625 224.038 352.111 224.669 344.686 225.921C319.372 230.184 307.806 237.45 297.508 247.589C280.836 263.91 267.062 282.946 256.772 303.885L256.754 303.94C256.845 303.763 256.986 303.618 257.161 303.524C257.336 303.431 257.535 303.392 257.732 303.415C257.863 303.427 257.99 303.464 258.106 303.526C259.859 304.459 306.207 325.62 311.666 328.242C311.879 328.364 312.042 328.558 312.123 328.79C312.205 329.022 312.2 329.275 312.109 329.503C312.207 329.35 312.284 329.185 312.339 329.012C313.787 335.366 314.725 341.824 315.561 348.29H326.162C328.244 348.24 330.293 348.821 332.039 349.958C333.785 351.094 335.147 352.732 335.944 354.657C336.472 355.936 336.735 357.309 336.723 358.691C337.732 356.238 339.224 354.013 341.11 352.147C342.996 350.281 345.237 348.812 347.7 347.828C353.387 345.842 359.425 345.062 365.43 345.538C393.728 347.545 388.327 347.78 414.419 351.142C413.418 338.473 413.72 325.735 415.321 313.128C415.387 312.903 415.523 312.704 415.71 312.562C415.897 312.42 416.124 312.341 416.359 312.337C428.127 312.174 456.159 311.01 478.093 309.413C478.327 309.415 478.556 309.492 478.743 309.634C478.93 309.776 479.066 309.975 479.131 310.201C477.1 294.099 471.381 278.682 462.42 265.151Z" fill="white"/>
<path d="M377.248 194.875C370.67 187.029 352.921 188.254 353.202 203.209C353.205 203.444 353.284 203.671 353.426 203.858C353.568 204.045 353.767 204.181 353.992 204.247C355.987 204.576 358.005 204.745 360.027 204.76C361.586 204.791 363.143 204.642 364.668 204.316C364.756 207.417 364.266 210.507 363.223 213.429C363.173 213.639 363.184 213.858 363.256 214.062C363.328 214.265 363.457 214.443 363.627 214.576C363.742 214.66 363.872 214.722 364.01 214.757C367.152 214.926 370.289 214.361 373.174 213.106C374.849 212.385 376.328 211.277 377.492 209.873C378.656 208.47 379.471 206.81 379.87 205.031C380.268 203.251 380.238 201.402 379.782 199.636C379.326 197.869 378.458 196.237 377.248 194.872V194.875Z" fill="white"/>
<path d="M83.0101 489.189C82.4349 484.298 80.9651 479.554 78.6741 475.194C70.3879 459.049 59.4576 444.404 46.3362 431.867C38.1891 433.678 28.2708 435.47 20.8931 436.819C-3.13171 441.209 -35.4907 446.306 -59.763 447.41C-62.5511 447.537 -65.5625 447.675 -68.5799 447.561C-68.842 447.553 -69.0928 447.452 -69.2866 447.275C-69.4804 447.099 -69.6044 446.858 -69.636 446.598C-69.627 446.978 -69.5908 447.359 -69.5274 447.733C-69.2106 450.445 -68.5317 453.104 -67.5148 455.635C-61.6911 470.288 -47.0747 480.137 -32.8806 487.065C-40.6324 489.989 -48.511 492.575 -56.133 495.831C-60.6592 497.373 -64.7875 499.898 -68.2209 503.226C-72.1918 507.707 -72.2884 512.783 -70.7736 518.588C-67.6102 528.823 -62.9578 538.537 -56.9658 547.417C-53.6466 552.465 -47.1079 561.529 -41.3264 563.346C-39.1314 563.825 -36.8635 563.868 -34.6519 563.473C-29.1561 562.41 -23.7306 561.011 -18.406 559.284C10.7063 550.917 47.0936 539.019 69.2868 517.946C75.9128 512.227 80.5793 504.575 82.6299 496.066C83.0825 493.803 83.2093 491.489 83.0101 489.189ZM69.8692 481.625L73.9639 491.241C74.504 492.502 72.6452 493.601 72.1051 492.327C70.7382 489.123 69.3773 485.918 68.0165 482.708C67.4703 481.45 69.3291 480.351 69.8692 481.625ZM-21.6859 487.883C-17.5915 489.545 -13.8909 492.047 -10.8232 495.227C-9.86361 496.226 -11.3874 497.753 -12.35 496.736C-15.1447 493.806 -18.5224 491.494 -22.2653 489.95C-23.5266 489.44 -22.9683 487.361 -21.6859 487.883Z" fill="white"/>
<path d="M311.681 328.242C307.514 326.242 258.743 303.937 258.218 303.587C258.044 303.465 257.835 303.402 257.623 303.408C257.41 303.414 257.205 303.488 257.038 303.62C256.927 303.706 256.836 303.815 256.77 303.94C256.166 304.688 251.079 315.886 248.547 321.972C242.8 298.074 235.203 274.658 225.826 251.937C233.151 245.508 239.731 238.275 245.439 230.375C247.484 228.074 248.826 225.235 249.305 222.194C249.664 216.075 242.364 213.54 236.511 215.3C230.331 217.149 225.784 221.721 220.56 225.203C215.204 228.769 208.723 230.351 204.327 225.619C202.507 223.63 200.932 221.43 199.637 219.065C199.637 219.065 183.892 194.147 180.957 189.235C175.021 179.296 165.821 178.179 161.126 183.26C159.516 185.079 158.38 187.265 157.816 189.627C157.253 191.989 157.281 194.454 157.897 196.803C159.874 202.86 162.593 208.649 165.993 214.038C167.122 216.193 169.502 219.56 166.808 221.519C164.84 222.949 162.061 221.193 160.278 220.185C151.736 215.357 144.092 205.43 134.358 203.86C125.116 202.352 120.394 213.362 124.612 221.117C130.013 230.346 137.151 238.441 145.631 244.955C147.991 246.85 147.203 248.334 144.343 248.232C135.538 247.909 125.574 241.31 116.489 243.244C110.511 244.517 109 250.887 111.568 256.267C114.367 261.218 118.872 264.982 124.241 266.859C130.031 269.272 136.093 270.884 141.235 274.631C159.587 288.011 161.479 316.713 166.802 335.282C174.849 331.833 183.342 329.538 192.031 328.463C194.297 328.161 196.596 328.695 198.494 329.971C199.2 330.588 199.774 331.341 200.182 332.185C200.589 333.029 200.822 333.947 200.866 334.884C201.258 342.071 193.747 345.553 188.051 348.764L175.878 355.65C177.29 357.7 178.845 359.648 180.531 361.479C191.539 361.763 197.779 360.574 205.576 360.933C222.428 361.7 223.505 375.749 211.49 381.017C218.384 383.476 225.568 385.031 232.862 385.643V358.673C232.866 357.275 233.151 355.892 233.7 354.605C234.249 353.319 235.051 352.157 236.058 351.187C237.067 350.219 238.26 349.463 239.567 348.965C240.874 348.468 242.267 348.238 243.665 348.29H301.687C305.753 342.46 309.227 336.238 312.058 329.718C312.082 329.648 312.101 329.576 312.115 329.504C312.206 329.276 312.212 329.023 312.134 328.791C312.053 328.561 311.892 328.366 311.681 328.242ZM202.773 234.641C201.487 239.984 198.862 244.912 195.147 248.961C191.431 253.01 186.746 256.046 181.533 257.785C180.214 258.226 179.653 256.147 180.963 255.709C185.817 254.072 190.175 251.227 193.627 247.442C197.08 243.656 199.512 239.055 200.697 234.071C201.016 232.722 203.095 233.296 202.773 234.644V234.641ZM247.455 340.312L247.066 331.936C246.999 330.548 249.154 330.557 249.22 331.936L249.609 340.312C249.664 341.7 247.521 341.694 247.455 340.312Z" fill="white"/>
<path d="M92.1906 324.051C92.1906 324.051 92.1725 264.774 92.1906 258.461C92.2729 251.887 89.8998 245.518 85.5353 240.6C81.1708 235.683 75.1289 232.57 68.5912 231.872C64.8593 231.595 61.1151 231.523 57.3754 231.654C47.273 231.805 43.3201 231.564 42.9671 231.594C43.2345 231.613 43.4848 231.732 43.6678 231.928C43.8508 232.124 43.953 232.382 43.9538 232.65C42.4118 245.287 39.9705 257.798 36.6486 270.087C36.2684 271.442 35.5834 275.09 33.9329 273.467C26.6609 266.282 13.5079 239.641 9.87788 233.033C9.79255 232.876 9.7472 232.701 9.74584 232.522C9.74449 232.344 9.78717 232.168 9.87011 232.01C9.95306 231.851 10.0737 231.716 10.2214 231.616C10.369 231.515 10.5392 231.453 10.7167 231.434C10.0951 231.374 -41.3431 231.111 -42.7825 231.132C-27.1832 232.961 -12.4017 239.099 -0.0947495 248.857C22.017 267.203 37.0831 295.174 86.041 321.354C87.2661 322.008 86.1768 323.867 84.9547 323.212C74.5164 317.631 64.5224 311.255 55.061 304.142C18.6979 276.822 10.5387 254.656 -15.4233 241.579C-24.0185 237.167 -33.3441 234.354 -42.9454 233.278C-44.1916 233.148 -44.3032 231.374 -43.2713 231.165C-49.1792 231.181 -54.9117 233.175 -59.5547 236.828C-64.1978 240.481 -67.484 245.584 -68.8893 251.322C-70.0722 257.508 -69.6618 242.982 -69.6618 446.502C-69.6499 446.784 -69.5322 447.052 -69.332 447.251C-69.1319 447.451 -68.864 447.568 -68.5815 447.579C-65.5641 447.694 -62.5255 447.555 -59.7646 447.428C-35.4893 446.324 -3.12427 441.227 20.8915 436.837C44.9073 432.447 37.5659 433.946 91.2702 421.092C94.2786 421.729 97.3353 422.118 100.41 422.248C99.9152 422.16 99.366 421.768 99.4385 421.198C104.251 382.647 103.871 361.887 108.708 334.739C108.782 334.477 108.954 334.252 109.188 334.112C109.421 333.971 109.7 333.925 109.966 333.982C103.622 331.487 97.6426 328.147 92.1906 324.054V324.051ZM22.6778 372.548C25.2452 375.882 28.5043 378.621 32.2311 380.577C33.4592 381.226 32.3668 383.087 31.1448 382.439C27.1067 380.284 23.5831 377.28 20.8161 373.634C19.9772 372.529 21.848 371.461 22.6778 372.548ZM6.10306 378.456C22.6296 394.94 52.7858 411.666 85.7845 417.752C87.1484 418.002 86.5691 420.078 85.2112 419.828C59.2666 415.197 34.8267 404.36 13.9756 388.241C-4.59677 373.646 -9.78375 360.604 -25.9331 346.926C-32.6989 341.069 -41.1724 337.549 -50.0967 336.887C-51.4787 336.797 -51.4817 334.655 -50.0967 334.733C-24.0381 336.148 -12.0468 360.348 6.10306 378.456ZM-36.992 400.296C-37.7252 399.113 -35.8665 398.036 -35.1302 399.207C-27.8317 411.333 -17.1717 421.081 -4.44289 427.269C-3.18763 427.872 -4.27995 429.71 -5.52917 429.131C-18.5622 422.731 -29.4828 412.723 -36.992 400.296ZM-31.1774 391.518C-23.3394 403.22 -12.5124 412.61 0.179832 418.714C1.43207 419.318 0.336739 421.174 -0.906448 420.573C-13.9221 414.287 -25.0164 404.63 -33.0361 392.604C-33.8116 391.449 -31.9438 390.375 -31.1774 391.518Z" fill="#92E3A9"/>
<path d="M219.382 369.412C218.347 363.133 211.024 361.181 205.584 360.933C195.536 360.475 182.144 363.088 168.128 360.028L188.043 348.758C193.852 345.469 201.254 342.098 200.858 334.878C200.816 333.941 200.584 333.023 200.176 332.178C199.768 331.334 199.194 330.581 198.487 329.965C196.588 328.69 194.29 328.154 192.023 328.456C168.907 331.326 162.588 340.2 144.822 340.291C132.941 340.245 121.162 338.1 110.027 333.954H109.961C109.694 333.896 109.416 333.943 109.182 334.083C108.948 334.224 108.777 334.449 108.703 334.712C103.851 361.944 104.294 382.227 99.4332 421.17C99.3608 421.741 99.91 422.133 100.405 422.22C100.441 422.22 100.477 422.244 100.51 422.247C117.164 423.723 134.233 422.175 150.63 425.829C165.654 429.179 168.958 432.926 184.7 434.685C187.359 434.996 190.052 434.846 192.66 434.242C194.935 433.586 196.951 432.244 198.434 430.398C199.917 428.552 200.793 426.294 200.943 423.931C200.928 420.162 198.058 417.42 195.605 414.897C188.252 407.353 182.989 406.068 173.24 400.054C171.816 399.176 169.531 398.174 169.178 396.349C169.096 395.499 169.258 394.642 169.644 393.881C170.03 393.119 170.625 392.482 171.36 392.046C173.834 390.586 172.567 391.108 197.225 384.979C202.076 384.021 206.846 382.693 211.495 381.008C217.901 378.199 220.031 373.341 219.382 369.412ZM144.933 360.007L155.235 358.498C156.593 358.299 157.172 360.375 155.805 360.577L145.506 362.086C144.149 362.285 143.566 360.2 144.933 360.007ZM146.107 394.903H156.424C156.709 394.903 156.983 395.017 157.185 395.219C157.387 395.421 157.501 395.695 157.501 395.981C157.501 396.266 157.387 396.54 157.185 396.742C156.983 396.944 156.709 397.058 156.424 397.058H146.107C145.889 397.067 145.673 397.009 145.488 396.892C145.304 396.775 145.16 396.604 145.075 396.403C145.019 396.269 144.989 396.125 144.989 395.98C144.989 395.835 145.018 395.691 145.074 395.557C145.13 395.423 145.213 395.301 145.317 395.199C145.42 395.098 145.543 395.017 145.678 394.964C145.816 394.914 145.961 394.893 146.107 394.9V394.903Z" fill="white"/>
<path d="M375.491 223.643C375.189 223.57 367.676 223.495 360.048 224.065C359.765 224.074 359.496 224.191 359.296 224.391C359.096 224.591 358.979 224.86 358.97 225.142C358.828 228.759 359.354 232.372 360.524 235.797C360.972 237.173 361.742 238.422 362.772 239.439C363.801 240.456 365.06 241.211 366.442 241.642C369.869 242.179 372.072 239.659 373.357 236.738C374.978 233.001 376.025 229.041 376.465 224.992C376.501 224.838 376.504 224.678 376.473 224.523C376.442 224.368 376.379 224.221 376.287 224.092C376.195 223.964 376.076 223.857 375.939 223.78C375.801 223.702 375.648 223.655 375.491 223.643Z" fill="white"/>
<path d="M42.9709 231.597C42.9287 231.597 11.2878 231.374 10.7296 231.428C10.5518 231.446 10.3812 231.507 10.233 231.607C10.0849 231.707 9.96378 231.842 9.88065 232C9.79752 232.158 9.75494 232.335 9.75671 232.513C9.75847 232.692 9.80453 232.868 9.89077 233.024C14.079 240.658 26.6677 266.276 33.9458 273.458C34.5312 274.037 35.5058 273.941 35.9735 272.462C36.1576 271.886 37.1805 268.238 37.9861 265.078C40.5994 254.394 42.5922 243.567 43.9546 232.653C43.9538 232.385 43.8521 232.128 43.6697 231.932C43.4873 231.736 43.2378 231.617 42.9709 231.597Z" fill="white"/>
<path d="M319.455 409.083C317.817 409.505 322.877 409.384 252.405 409.384C249.938 409.382 247.572 408.401 245.827 406.656C244.083 404.911 243.101 402.546 243.099 400.079V366.902C243.099 365.68 243.339 364.47 243.807 363.341C244.274 362.212 244.96 361.186 245.824 360.322C246.688 359.458 247.714 358.773 248.843 358.306C249.973 357.838 251.183 357.598 252.405 357.599H317.256C318.478 357.599 319.688 357.839 320.817 358.306C321.946 358.774 322.971 359.459 323.836 360.323C324.7 361.187 325.385 362.212 325.853 363.341C326.321 364.47 326.561 365.68 326.561 366.902V379.97C329.347 373.595 333.447 364.883 336.745 358.691C336.756 357.309 336.49 355.937 335.962 354.659C335.434 353.381 334.654 352.222 333.67 351.25C332.685 350.28 331.515 349.518 330.228 349.009C328.942 348.501 327.567 348.256 326.184 348.29H243.681C242.284 348.236 240.889 348.464 239.582 348.962C238.275 349.459 237.082 350.216 236.074 351.187C235.065 352.156 234.262 353.318 233.713 354.604C233.164 355.891 232.88 357.275 232.879 358.673V417.015C232.085 417.697 211.591 438.596 205.342 444.613C201.618 448.201 202.895 455.433 211.567 454.761C211.567 454.761 287.561 454.957 291.345 454.709C294.965 454.47 298.493 453.461 301.692 451.749C307.301 448.352 306.821 447.929 336.48 418.488C336.926 417.821 336.781 418.379 336.781 412.586C328.324 417.399 321.676 414.58 319.455 409.083ZM295.901 441.427H222.879C222.593 441.427 222.32 441.313 222.117 441.111C221.915 440.909 221.802 440.635 221.802 440.349C221.802 440.064 221.915 439.79 222.117 439.588C222.32 439.386 222.593 439.272 222.879 439.272H295.901C296.043 439.272 296.183 439.299 296.314 439.353C296.445 439.407 296.564 439.487 296.664 439.587C296.764 439.687 296.843 439.806 296.897 439.937C296.951 440.068 296.979 440.208 296.978 440.349C296.979 440.491 296.951 440.631 296.897 440.762C296.843 440.893 296.764 441.012 296.664 441.112C296.564 441.212 296.445 441.291 296.314 441.345C296.183 441.399 296.043 441.427 295.901 441.427ZM307.274 429.755H233.347C233.061 429.755 232.787 429.642 232.585 429.44C232.383 429.238 232.269 428.964 232.269 428.678C232.269 428.392 232.383 428.118 232.585 427.916C232.787 427.714 233.061 427.601 233.347 427.601H307.274C307.416 427.6 307.556 427.628 307.687 427.682C307.817 427.736 307.936 427.815 308.037 427.915C308.137 428.015 308.216 428.134 308.27 428.265C308.324 428.396 308.352 428.536 308.351 428.678C308.352 428.819 308.324 428.96 308.27 429.091C308.216 429.221 308.137 429.34 308.037 429.44C307.936 429.541 307.817 429.62 307.687 429.674C307.556 429.728 307.416 429.756 307.274 429.755Z" fill="#92E3A9"/>
<path d="M326.554 366.902C326.555 365.68 326.314 364.47 325.847 363.34C325.379 362.211 324.694 361.186 323.83 360.322C322.965 359.458 321.939 358.773 320.81 358.305C319.681 357.838 318.471 357.598 317.249 357.599H252.401C251.179 357.598 249.968 357.837 248.839 358.305C247.71 358.772 246.683 359.457 245.819 360.321C244.955 361.185 244.269 362.211 243.802 363.34C243.334 364.469 243.094 365.68 243.095 366.902V400.069C243.096 401.91 243.641 403.71 244.663 405.242C245.685 406.773 247.137 407.968 248.837 408.675C249.966 409.143 251.179 409.384 252.401 409.384C322.463 409.384 317.816 409.511 319.451 409.082C317.396 404.113 319.373 397.345 321.395 392.363C324.961 383.57 323.884 386.083 326.554 379.97V366.902Z" fill="white"/>
<path d="M479.125 310.186C479.062 309.959 478.926 309.76 478.739 309.617C478.551 309.475 478.322 309.398 478.087 309.398C453.857 311.161 425.991 312.19 416.353 312.322C416.118 312.324 415.89 312.402 415.702 312.544C415.515 312.687 415.379 312.886 415.315 313.113C413.721 325.729 413.427 338.475 414.437 351.151C388.185 347.768 393.81 347.557 365.449 345.547C359.444 345.071 353.406 345.851 347.719 347.838C345.255 348.822 343.014 350.29 341.128 352.156C339.243 354.022 337.751 356.247 336.741 358.7C331.028 369.642 325.906 380.882 321.397 392.372C320.274 395.13 319.425 397.992 318.863 400.917C316.56 413.035 327.312 421.095 341.494 409.267C346.913 404.87 351.577 399.618 355.301 393.718C355.205 398.809 356.556 403.823 359.197 408.177C365.147 417.875 380.766 415.35 385.017 405.447C385.278 407.527 385.995 409.524 387.119 411.295C388.242 413.065 389.743 414.565 391.514 415.688C394.455 417.289 397.853 417.844 401.151 417.262C404.449 416.68 407.451 414.995 409.667 412.483C411.997 409.053 412.876 404.84 412.114 400.763C420.048 403.645 428.276 405.64 436.648 406.714C443.432 407.667 450.345 406.835 456.708 404.3C468.537 399.3 476.02 386.572 478.184 374.473C481.836 353.223 482.153 331.534 479.125 310.186ZM457.08 394.976C459.53 393.329 461.75 391.361 463.679 389.125C464.741 387.9 466.515 389.686 465.456 390.902C463.374 393.289 460.985 395.389 458.35 397.146C456.998 398.048 455.755 395.872 457.08 394.976ZM439.035 357.258C432.156 355.685 425.176 354.588 418.146 353.975C416.543 353.833 416.534 351.32 418.146 351.462C425.399 352.092 432.602 353.218 439.702 354.835C441.271 355.182 440.61 357.605 439.035 357.246V357.258ZM386.188 389.943C387.766 386.844 388.898 383.537 389.549 380.121C389.851 378.531 392.283 379.216 391.963 380.791C391.251 384.417 390.032 387.924 388.342 391.21C387.621 392.641 385.449 391.367 386.188 389.931V389.943ZM357.018 380.07L360.678 369.919C361.225 368.41 363.651 369.062 363.092 370.589L359.432 380.74C358.895 382.227 356.481 381.582 357.018 380.058V380.07Z" fill="white"/>
<path d="M34.4144 194.03C33.6178 188.031 26.9764 185.125 21.6476 186.009C19.4881 186.577 17.5091 187.686 15.8981 189.232C14.2871 190.778 13.0973 192.71 12.4414 194.845C11.0781 197.631 10.548 200.753 10.9146 203.833C11.1622 204.871 11.6156 205.849 12.2479 206.708C12.8803 207.568 13.6787 208.291 14.5959 208.836C16.5816 210.213 18.9145 211.003 21.3279 211.116C23.7414 211.229 26.138 210.661 28.2437 209.476C33.5363 206.413 35.1235 199.386 34.4144 194.03ZM27.1152 201.377C26.7622 202.174 26.1885 202.853 25.4618 203.335C24.7352 203.816 23.886 204.079 23.0145 204.093C22.1222 203.909 21.3167 203.433 20.7263 202.739C20.1358 202.045 19.7942 201.174 19.7557 200.264C19.5294 198.906 21.6054 198.327 21.8317 199.691C21.9584 200.448 22.2058 201.803 23.1624 201.954C24.1189 202.104 24.8461 200.979 25.2534 200.294C25.3279 200.173 25.4258 200.068 25.5414 199.986C25.6569 199.903 25.7877 199.844 25.9263 199.813C26.0648 199.781 26.2082 199.778 26.3481 199.802C26.488 199.827 26.6216 199.879 26.741 199.956C26.9701 200.103 27.1357 200.331 27.2049 200.594C27.2742 200.857 27.2422 201.137 27.1152 201.377Z" fill="white"/>
<path d="M35.1248 170.925C39.2678 167.769 42.0981 166.215 41.5339 163.107C41.2537 161.98 40.6233 160.972 39.7335 160.226C38.8438 159.481 37.7404 159.037 36.5822 158.958C33.439 158.74 30.3219 159.657 27.7985 161.544C27.886 161.296 27.9856 161.055 28.067 160.808C29.3826 157.567 28.5709 153.379 25.0315 152.54C21.4468 152.018 19.0932 155.065 18.1728 158.526C16.8748 162.463 15.792 166.467 14.9291 170.521C14.3842 172.315 14.1195 174.183 14.1446 176.058C14.3405 177.732 15.1313 179.281 16.373 180.421C17.6146 181.561 19.2246 182.218 20.9097 182.271C27.1346 182.449 33.3838 182.509 39.6178 182.271C41.7541 182.192 44.2616 182.056 45.3238 179.857C47.5627 175.18 42.0257 169.413 35.1248 170.925Z" fill="black"/>
<path d="M297.995 473.749C298.137 473.75 298.277 473.723 298.408 473.669C298.539 473.615 298.658 473.536 298.759 473.435C298.859 473.335 298.938 473.216 298.992 473.085C299.046 472.954 299.073 472.814 299.072 472.672C299.073 472.53 299.045 472.39 298.991 472.259C298.937 472.128 298.858 472.009 298.758 471.909C298.658 471.809 298.539 471.73 298.408 471.676C298.277 471.622 298.137 471.594 297.995 471.595H92.6885C92.4028 471.595 92.1288 471.708 91.9268 471.91C91.7248 472.112 91.6113 472.386 91.6113 472.672C91.6113 472.958 91.7248 473.232 91.9268 473.434C92.1288 473.636 92.4028 473.749 92.6885 473.749C160.861 474.983 229.427 474.989 297.995 473.749Z" fill="#92E3A9"/>
<path d="M265.352 607.733C243.28 603.687 221.199 599.69 199.11 595.741V484.645C199.11 484.36 198.997 484.086 198.795 483.884C198.593 483.682 198.319 483.568 198.033 483.568C197.747 483.568 197.473 483.682 197.271 483.884C197.069 484.086 196.956 484.36 196.956 484.645V595.759C193.127 596.508 179.231 599.742 130.346 606.894C128.979 607.093 129.561 609.169 130.919 608.97C142.15 607.331 182.481 601.155 198.111 597.73C215.857 600.47 247.899 606.526 264.779 609.8C266.133 610.074 266.713 607.998 265.352 607.733Z" fill="#92E3A9"/>
<path d="M223.203 127.948C204.679 127.815 206.23 127.812 205.684 128.267C205.217 128.889 205.099 125.854 205.364 163.128C205.367 163.413 205.481 163.686 205.683 163.887C205.884 164.089 206.157 164.203 206.442 164.205H223.2C223.485 164.202 223.758 164.088 223.96 163.886C224.162 163.685 224.277 163.413 224.281 163.128V129.031C224.279 128.745 224.165 128.471 223.964 128.268C223.763 128.065 223.49 127.949 223.203 127.945V127.948Z" fill="white"/>
<path d="M251.932 117.773C232.62 117.634 234.355 117.643 233.827 118.093C233.341 118.739 233.166 114.988 233.526 163.128C233.528 163.413 233.642 163.686 233.844 163.887C234.045 164.089 234.318 164.203 234.603 164.205H251.959C252.243 164.201 252.515 164.086 252.716 163.885C252.917 163.684 253.032 163.412 253.036 163.128V118.85C253.033 118.635 252.966 118.425 252.844 118.248C252.722 118.07 252.551 117.932 252.351 117.851C252.218 117.798 252.076 117.771 251.932 117.773Z" fill="white"/>
<path d="M290.242 95.0275C266.618 94.8585 268.438 94.8917 267.934 95.3473C267.445 95.9991 267.098 90.5194 267.632 163.128C267.634 163.413 267.749 163.686 267.95 163.887C268.152 164.089 268.424 164.203 268.709 164.205H290.257C290.541 164.201 290.812 164.086 291.013 163.885C291.214 163.684 291.329 163.412 291.334 163.128V96.1047C291.329 95.8179 291.212 95.5444 291.008 95.3429C290.804 95.1415 290.529 95.0282 290.242 95.0275Z" fill="#92E3A9"/>
<path d="M296.081 64.1169C286.106 68.6014 275.77 72.2353 265.183 74.9796C264.914 75.0622 264.688 75.246 264.553 75.4922C264.418 75.7383 264.384 76.0274 264.458 76.2982C264.535 76.5672 264.713 76.7959 264.955 76.9365C265.197 77.0772 265.484 77.1187 265.756 77.0526C272.965 75.21 280.053 72.9245 286.981 70.2091C252.421 89.9656 216.134 106.534 178.57 119.71C177.269 120.163 177.831 122.251 179.143 121.789C216.555 108.656 252.709 92.1812 287.168 72.5657C282.436 77.1793 277.645 81.7357 272.512 85.8816C271.435 86.7537 272.968 88.2714 274.036 87.3903C280.943 81.8081 289.576 73.3532 296.953 65.9967C297.141 65.8484 297.273 65.641 297.328 65.4081C297.382 65.1753 297.357 64.9307 297.255 64.7143C297.156 64.4965 296.986 64.3187 296.773 64.2102C296.559 64.1016 296.316 64.0687 296.081 64.1169Z" fill="#92E3A9"/>
<path d="M420.658 124.538C421.319 123.331 419.451 122.23 418.797 123.452L403.197 152.235C402.536 153.442 404.403 154.544 405.055 153.322C406.817 150.072 420.01 125.745 420.658 124.538Z" fill="black"/>
<path d="M414.05 159.341L437.526 142.465C438.642 141.662 437.568 139.791 436.439 140.603L412.964 157.48C411.847 158.282 412.921 160.144 414.05 159.341Z" fill="black"/>
<path d="M-31.1799 391.518C-31.9463 390.368 -33.8141 391.449 -33.0386 392.604C-25.019 404.63 -13.9247 414.287 -0.908958 420.573C0.334229 421.176 1.42956 419.318 0.177322 418.714C-12.5149 412.61 -23.3419 403.219 -31.1799 391.518Z" fill="black"/>
<path d="M375.059 305.192L364.105 254.146C363.864 253.036 362.352 253.214 362.026 254.146C360.895 257.393 344.091 305.512 343.635 306.951C343.246 308.188 344.54 309.413 345.207 310.373C356.827 327.391 356.106 326.408 356.372 326.592C356.462 326.696 356.573 326.78 356.699 326.837C356.824 326.894 356.961 326.924 357.099 326.923C357.237 326.923 357.374 326.893 357.5 326.836C357.625 326.779 357.738 326.695 357.829 326.592C361.492 322.337 372.799 309.996 374.642 307.953C375.599 306.867 375.391 306.728 375.059 305.189V305.192Z" fill="#92E3A9"/>
<path d="M25.2549 200.276C24.8476 200.961 24.1143 202.086 23.1638 201.936C22.2133 201.785 21.9569 200.427 21.8331 199.672C21.6068 198.309 19.5308 198.888 19.7571 200.246C19.795 201.157 20.1363 202.028 20.7268 202.723C21.3174 203.417 22.1231 203.894 23.016 204.078C23.8873 204.063 24.7361 203.8 25.4627 203.319C26.1892 202.837 26.7631 202.159 27.1167 201.362C27.2473 201.116 27.2779 200.829 27.202 200.561C27.126 200.293 26.9495 200.065 26.7093 199.924C26.469 199.783 26.1836 199.74 25.9126 199.805C25.6416 199.869 25.4059 200.036 25.2549 200.27V200.276Z" fill="black"/>
<path d="M178.753 586.81C164.126 580.075 148.362 576.155 132.284 575.256C114.98 574.755 97.8399 578.735 82.5268 586.81C82.3291 586.933 82.1765 587.117 82.0915 587.335C82.0066 587.552 81.9938 587.791 82.055 588.016C82.1163 588.241 82.2483 588.44 82.4317 588.584C82.615 588.728 82.8398 588.81 83.0729 588.816H178.21C179.205 588.816 179.77 587.265 178.753 586.81Z" fill="black"/>
<path d="M375.706 565.663C356.093 556.883 333.127 551.732 311.736 555.069C303.179 551.786 294.288 549.448 285.222 548.096C267.903 545.187 250.115 547.2 233.883 553.905C230.425 555.236 227.045 556.762 223.76 558.476C223.563 558.602 223.411 558.786 223.326 559.004C223.241 559.221 223.227 559.46 223.286 559.686C223.345 559.913 223.476 560.115 223.659 560.261C223.843 560.408 224.069 560.491 224.303 560.498H291.085C287.111 561.978 283.232 563.703 279.471 565.663C279.272 565.786 279.118 565.97 279.033 566.188C278.948 566.406 278.937 566.645 279 566.87C279.062 567.095 279.193 567.294 279.377 567.438C279.56 567.582 279.784 567.663 280.017 567.67H375.169C376.159 567.67 376.726 566.119 375.706 565.663Z" fill="black"/>
<path d="M451.977 428.943C452.122 427.564 449.973 427.576 449.823 428.943C448.643 439.239 445.074 449.117 439.4 457.79C433.73 466.465 426.112 473.696 417.153 478.906C416.868 479.144 416.638 479.441 416.479 479.777C416.319 480.112 416.234 480.478 416.229 480.849C422.162 503.293 428.55 534.801 432.759 557.371C433.012 558.732 435.091 558.156 434.838 556.798C430.077 531.272 424.596 505.885 418.402 480.668C427.645 475.262 435.495 467.769 441.325 458.788C447.154 449.807 450.802 439.586 451.977 428.943Z" fill="#92E3A9"/>
<path d="M147.284 457.497C147.909 458.738 149.768 457.648 149.143 456.411L144.433 447.096C143.808 445.856 141.949 446.945 142.574 448.183L147.284 457.497Z" fill="white"/>
<path d="M286.447 380.263C286.372 377.052 286.351 373.815 286.372 370.607C288.647 370.71 291.022 370.969 293.279 371.144C294.661 371.253 294.655 369.095 293.279 368.99C291.018 368.815 288.662 368.598 286.396 368.483C286.396 367.46 286.417 366.446 286.441 365.441C286.441 365.3 286.414 365.16 286.36 365.029C286.306 364.898 286.227 364.779 286.126 364.679C286.026 364.579 285.907 364.499 285.776 364.445C285.646 364.391 285.505 364.364 285.364 364.364C285.222 364.364 285.082 364.391 284.951 364.445C284.82 364.499 284.701 364.579 284.601 364.679C284.501 364.779 284.422 364.898 284.368 365.029C284.314 365.16 284.286 365.3 284.287 365.441C284.256 366.407 284.235 367.406 284.22 368.429C275.605 368.429 272.869 375.761 276.462 379.291C278.203 381.008 280.738 381.072 284.344 381.914C284.468 386.06 284.673 390.181 284.92 393.944C282.2 393.7 279.6 392.704 277.413 391.068C276.296 390.248 275.213 392.122 276.324 392.93C278.884 394.792 281.916 395.897 285.074 396.12C285.116 396.675 285.15 397.221 285.192 397.755C285.306 399.125 287.461 399.137 287.349 397.755C287.304 397.216 287.261 396.677 287.223 396.138C296.942 395.251 297.437 383.863 286.447 380.263ZM278.647 378.262C278.248 378.01 277.905 377.676 277.641 377.284C277.378 376.892 277.198 376.449 277.115 375.983C277.031 375.518 277.046 375.04 277.157 374.581C277.268 374.121 277.473 373.69 277.76 373.314C278.546 372.39 279.537 371.663 280.655 371.191C281.773 370.719 282.986 370.516 284.196 370.598C284.178 373.54 284.196 376.633 284.287 379.756C282.345 379.529 280.446 379.026 278.647 378.262ZM287.066 394.023C286.818 390.344 286.628 386.479 286.507 382.556C294.323 385.272 294.256 393.627 287.081 394.023H287.066Z" fill="#92E3A9"/>
<path d="M307.274 427.6H233.347C233.061 427.6 232.787 427.714 232.585 427.916C232.383 428.118 232.27 428.392 232.27 428.678C232.27 428.963 232.383 429.237 232.585 429.439C232.787 429.641 233.061 429.755 233.347 429.755H307.274C307.559 429.753 307.833 429.639 308.034 429.438C308.236 429.236 308.35 428.963 308.351 428.678C308.352 428.536 308.324 428.396 308.27 428.265C308.216 428.134 308.137 428.015 308.037 427.915C307.937 427.815 307.818 427.736 307.687 427.682C307.556 427.628 307.416 427.6 307.274 427.6Z" fill="white"/>
<path d="M295.899 439.272H222.877C222.605 439.292 222.351 439.415 222.166 439.614C221.98 439.814 221.877 440.077 221.877 440.349C221.877 440.622 221.98 440.884 222.166 441.084C222.351 441.284 222.605 441.406 222.877 441.426H295.899C296.04 441.427 296.181 441.399 296.311 441.345C296.442 441.291 296.561 441.212 296.661 441.112C296.761 441.012 296.841 440.893 296.895 440.762C296.949 440.631 296.976 440.491 296.976 440.349C296.975 440.064 296.861 439.79 296.66 439.588C296.458 439.387 296.184 439.273 295.899 439.272Z" fill="white"/>
<path d="M200.698 234.071C199.515 239.056 197.082 243.657 193.63 247.443C190.178 251.228 185.819 254.073 180.964 255.709C179.655 256.147 180.216 258.226 181.535 257.785C186.747 256.046 191.432 253.01 195.147 248.962C198.863 244.914 201.488 239.987 202.774 234.644C203.097 233.296 201.018 232.722 200.698 234.071Z" fill="white"/>
<path d="M249.611 340.312L249.221 331.936C249.155 330.557 247.001 330.548 247.067 331.936L247.456 340.312C247.523 341.694 249.665 341.7 249.611 340.312Z" fill="white"/>
<path d="M353.942 204.422C356.89 204.924 359.89 205.051 362.87 204.799C363.389 204.748 363.956 204.615 364.512 204.521C364.546 207.537 364.049 210.535 363.042 213.378C362.994 213.564 362.988 213.758 363.026 213.947C363.064 214.136 363.143 214.313 363.26 214.467C363.376 214.62 363.525 214.745 363.697 214.832C363.868 214.92 364.057 214.967 364.249 214.971C367.342 215.071 370.418 214.483 373.256 213.251C375.818 212.14 377.899 210.151 379.125 207.643C380.35 205.134 380.64 202.27 379.943 199.567C379.479 197.775 378.597 196.118 377.369 194.733C370.462 186.67 352.587 188.306 353.018 203.197C353.019 203.473 353.109 203.742 353.276 203.963C353.442 204.184 353.676 204.345 353.942 204.422ZM361.401 193.312C363.816 192.375 366.455 192.181 368.982 192.753C371.508 193.325 373.806 194.637 375.583 196.522C376.542 197.646 377.218 198.984 377.553 200.423C377.888 201.862 377.873 203.361 377.509 204.793C377.144 206.225 376.442 207.549 375.46 208.653C374.478 209.757 373.245 210.61 371.865 211.139C369.95 211.885 367.93 212.329 365.879 212.454C366.95 209.368 367.26 206.069 366.784 202.838C366.708 202.575 366.549 202.344 366.332 202.177C366.115 202.011 365.85 201.919 365.577 201.914C363.854 202.198 362.113 202.37 360.366 202.424C358.766 202.436 357.167 202.334 355.58 202.122C355.542 200.237 356.078 198.384 357.118 196.81C358.158 195.237 359.651 194.016 361.401 193.312Z" fill="black"/>
<path d="M413.178 229.409C407.143 207.08 403.962 191.359 394.551 179.878C387.762 171.592 376.829 165.641 365.906 167.488C354.709 169.38 346.896 179.323 343.74 189.657C341.984 195.904 341.157 202.375 341.284 208.863C341.278 214.65 341.65 220.43 342.397 226.168C319.127 230.453 308.047 236.959 297.377 247.462C293.79 250.993 290.178 254.463 286.837 258.241C279.049 267.406 271.971 277.151 265.664 287.392C259.128 298.284 253.419 309.652 248.585 321.399C242.86 297.72 235.318 274.517 226.027 251.998C233.338 245.583 239.899 238.36 245.583 230.468C247.633 228.134 248.98 225.268 249.469 222.2C249.538 220.79 249.166 219.393 248.405 218.204C247.645 217.015 246.533 216.091 245.224 215.562C235.656 211.479 227.008 220.667 220.457 225.04C215.161 228.57 208.773 230.145 204.44 225.483C202.657 223.484 201.094 221.299 199.778 218.966C196.722 213.794 184.033 194.048 181.1 189.135C175.129 179.154 165.793 177.947 160.986 183.137C159.354 184.977 158.201 187.192 157.63 189.585C157.059 191.978 157.087 194.475 157.712 196.854C159.693 202.926 162.417 208.729 165.823 214.132C166.9 216.184 169.272 219.476 166.701 221.374C164.815 222.765 162.069 221.005 160.364 220.037C151.78 215.179 144.07 205.2 134.399 203.697C125.217 202.128 120.115 212.97 124.442 221.217C129.819 230.48 136.971 238.591 145.488 245.085C146.179 245.64 147.178 246.273 146.695 247.302C146.27 248.208 145.166 248.087 144.324 248.057C135.308 247.686 125.582 241.117 116.421 243.078C115.077 243.35 113.828 243.972 112.801 244.88C111.773 245.789 111.003 246.952 110.568 248.253C109.865 250.969 110.16 253.844 111.394 256.361C114.218 261.351 118.76 265.145 124.173 267.036C129.952 269.45 135.993 271.05 141.125 274.791C159.384 288.086 161.369 316.915 166.571 335.158C159.724 338.245 152.327 339.928 144.819 340.11C126.629 340.11 107.26 335.234 92.3664 323.957V258.461C92.4568 251.836 90.0675 245.417 85.6676 240.464C81.2676 235.511 75.175 232.381 68.586 231.69C64.854 231.417 61.11 231.345 57.3702 231.473C56.9387 231.473 -43.1105 230.93 -43.2855 230.966C-49.2267 231.011 -54.984 233.031 -59.6513 236.708C-64.3185 240.384 -67.6308 245.508 -69.0665 251.273C-69.7823 255.002 -70.0427 258.803 -69.842 262.595C-69.842 460.967 -70.1257 446.399 -69.2566 450.53C-65.6357 467.621 -48.9734 479.358 -33.3491 487.041C-40.9832 489.907 -48.7381 492.472 -56.2394 495.674C-60.7838 497.21 -64.9265 499.744 -68.3635 503.091C-70.4802 505.412 -71.7175 508.401 -71.8607 511.539C-72.2711 523.911 -58.8193 546.581 -50.6089 556.231C-48.1959 559.389 -45.0254 561.888 -41.3906 563.497C-39.1818 563.995 -36.8946 564.04 -34.6677 563.626C-31.7649 563.17 -28.899 562.505 -26.0922 561.635C4.40508 552.978 44.0844 541.358 68.4774 518.914C70.7284 521.162 70.0344 520.148 82.4843 555.881C83.4858 559.397 85.1479 562.69 87.3816 565.585C92.6048 571.602 101.663 571.215 108.914 571.318C117.977 571.477 127.042 571.156 136.071 570.355C147.573 569.305 160.793 566.526 167.434 557.139C169.554 553.614 170.602 549.548 170.452 545.437C171.363 521.494 169.779 497.52 165.717 473.906H163.165C167.217 497.578 168.815 521.606 167.932 545.606C168.081 549.631 166.878 553.59 164.516 556.852C159.658 562.688 151.716 565.358 144.499 566.713C131.593 568.602 118.54 569.278 105.51 568.732C101.846 568.769 98.1922 568.315 94.6476 567.383C92.9944 566.822 91.4716 565.933 90.1706 564.769C88.8697 563.605 87.8173 562.19 87.0769 560.609C83.5978 552.948 84.0594 551.557 73.8001 523.38C73.0382 521.107 71.8251 519.011 70.2335 517.218C76.4724 511.623 80.8487 504.252 82.774 496.096C83.2262 493.818 83.3562 491.488 83.1602 489.174C82.6189 484.244 81.1389 479.463 78.8 475.089C70.5237 459.049 59.6671 444.479 46.6643 431.961C53.7704 430.337 85.7492 422.588 87.3152 422.205L118.265 430.729C128.862 433.647 140.624 436.094 149.106 443.581C157.075 450.611 160.573 461.027 162.685 471.401H92.6833C92.4431 471.414 92.2116 471.496 92.0161 471.636C91.8205 471.776 91.6691 471.969 91.5797 472.192C91.4902 472.415 91.4665 472.659 91.5113 472.896C91.556 473.132 91.6674 473.351 91.8323 473.526C92.0548 473.761 92.3599 473.9 92.6833 473.915H229.922C229.995 484.651 230.707 495.375 232.053 506.027C232.246 508.603 232.611 511.168 233.142 513.697C235.821 525.26 247.698 536.379 263.096 537.646C270.224 538.188 277.387 537.215 284.112 534.792C290.838 532.369 296.975 528.551 302.121 523.588C304.698 527.765 308.114 531.361 312.154 534.149C315.518 536.554 319.261 538.38 323.228 539.55C340.913 544.843 363.963 545.727 379.089 534.976C394.928 523.736 394.264 508.039 406.651 479.174C408.205 475.296 410.342 471.678 412.987 468.444C418.482 462.059 431.671 453.749 436.949 439.574C440.796 429.242 439.643 417.64 436.895 406.919C443.633 407.842 450.497 406.997 456.81 404.466C469.066 399.116 476.26 386.222 478.366 374.533C483.309 347.047 482.914 310.457 472.147 282.944C461.84 256.632 439.312 238.154 413.178 229.409ZM343.876 205.104C344.25 195.725 346.205 185.882 352.391 178.508C354.878 175.245 358.212 172.728 362.031 171.23C365.849 169.733 370.006 169.312 374.047 170.014C382.526 171.869 389.94 176.975 394.696 184.235C401.938 194.772 404.653 207.409 410.329 228.51C397.415 224.795 384.007 223.083 370.574 223.434C361.948 223.533 353.342 224.293 344.833 225.71C343.936 218.88 343.616 211.987 343.876 205.104ZM373.945 225.969C373.528 228.88 372.801 231.738 371.775 234.493C370.967 236.566 369.557 239.967 366.812 239.37C362.433 238.416 361.244 230.839 361.314 226.334C365.518 226.062 369.731 225.941 373.945 225.972V225.969ZM143.569 273.497C138.662 269.957 133.183 267.287 127.372 265.603C121.905 264.009 117.163 260.565 113.956 255.86C113.3 254.742 112.891 253.496 112.759 252.206C112.627 250.917 112.774 249.614 113.19 248.386C113.887 247.258 114.895 246.355 116.092 245.785C117.289 245.215 118.625 245.002 119.94 245.172C127.598 245.103 133.82 249.466 143.246 250.495C145.528 250.7 148.074 250.606 149.049 248.15C149.251 247.644 149.342 247.1 149.316 246.556C149.29 246.011 149.148 245.479 148.898 244.994C148.168 243.969 147.245 243.095 146.182 242.42C139.19 236.839 133.14 230.171 128.262 222.671C126.851 220.779 125.893 218.588 125.462 216.268C125.223 214.372 125.477 212.446 126.198 210.677C126.86 208.904 128.199 207.466 129.921 206.68C131.643 205.893 133.606 205.822 135.38 206.482C140.142 208.114 144.512 210.72 148.21 214.135C151.959 217.52 156.074 220.476 160.479 222.949C161.482 223.637 162.634 224.079 163.84 224.236C165.047 224.393 166.273 224.262 167.419 223.854C168.507 223.302 169.378 222.399 169.89 221.292C170.402 220.184 170.527 218.936 170.243 217.75C167.431 209.096 155.075 196.395 161.659 186.29C162.706 184.6 164.344 183.36 166.254 182.811C167.475 182.581 168.73 182.598 169.944 182.863C171.158 183.127 172.307 183.633 173.321 184.35C175.68 186.008 177.646 188.165 179.079 190.668C199.733 225.631 199.504 223.468 201.709 226.253C203.463 228.458 205.907 230.011 208.649 230.661C218.133 232.306 225.094 224.059 232.641 219.497C240.396 214.82 246.823 217.59 246.959 221.579C246.568 224.603 245.212 227.42 243.091 229.611C237.423 237.363 230.897 244.449 223.637 250.733C223.478 250.885 223.363 251.079 223.306 251.291C223.249 251.504 223.252 251.729 223.314 251.94C233.214 275.851 241.151 300.527 247.046 325.726C247.348 327.053 249.047 326.782 249.46 325.726C252.135 319.103 255.054 312.582 258.211 306.176C258.513 306.308 307.634 328.891 309.456 329.754C306.55 336.182 303.039 342.319 298.97 348.082H243.673C240.869 347.977 238.138 348.987 236.078 350.891C234.02 352.798 232.804 355.444 232.695 358.248V383.256C226.505 382.704 220.396 381.46 214.482 379.548C222.856 374.162 222.026 361.47 205.59 360.722C198.188 360.384 193.647 361.286 183.623 361.325C181.566 359.258 179.686 357.022 178.001 354.642C193.17 346.066 192.98 346.235 194.778 345.037C202.473 339.908 202.268 332.967 198.623 329.814C196.689 328.509 194.344 327.959 192.032 328.269C184.078 329.157 176.29 331.174 168.904 334.259C163.512 315.264 162 288.349 143.569 273.497ZM317.229 356.341C311.076 356.271 255.444 356.341 255.444 356.341C252.599 356.042 249.726 356.527 247.137 357.744C245.535 358.679 244.205 360.016 243.276 361.621C242.347 363.227 241.851 365.047 241.838 366.902C241.838 366.902 241.693 397.64 241.838 400.57C241.988 403.363 243.232 405.984 245.3 407.867C247.368 409.749 250.094 410.742 252.888 410.63C322.893 409.936 317.905 410.781 319.83 410.277C321.325 412.649 323.678 414.352 326.397 415.034C329.117 415.715 331.995 415.321 334.431 413.934V416.348C334.431 416.348 236.153 416.276 235.188 416.288V358.673C235.215 356.54 236.077 354.504 237.589 352.999C239.101 351.495 241.142 350.643 243.275 350.625H325.008C326.254 350.556 327.503 350.671 328.716 350.966C330.4 351.496 331.866 352.557 332.896 353.989C333.927 355.422 334.465 357.15 334.431 358.914V362.798C332.105 367.39 329.905 372.046 327.793 376.741V367.442C327.887 365.289 327.325 363.158 326.182 361.331C325.039 359.505 323.368 358.069 321.39 357.213C320.076 356.645 318.661 356.348 317.229 356.341ZM318.864 407.939C317.507 408.225 320.904 408.132 255.694 408.129C253.291 408.413 250.854 408.089 248.609 407.184C247.32 406.485 246.243 405.449 245.493 404.188C244.744 402.926 244.349 401.485 244.352 400.018V366.914C244.355 365.215 244.891 363.56 245.886 362.183C246.881 360.806 248.283 359.777 249.895 359.24C250.966 358.884 252.098 358.757 253.22 358.866H317.214C318.361 358.859 319.497 359.096 320.546 359.562C321.594 360.028 322.531 360.713 323.294 361.57C324.06 362.424 324.635 363.433 324.98 364.528C325.325 365.623 325.433 366.779 325.295 367.918V382.402C320.75 393.045 319.48 396.475 318.686 400.884C318.252 403.218 318.312 405.617 318.864 407.927V407.939ZM302.024 348.124C304.74 344.111 311.68 332.584 312.283 329.582C313.647 335.698 314.562 341.905 315.37 348.124H302.024ZM180.089 361.298C176.23 361.207 172.387 360.765 168.608 359.977L175.817 355.9C177.123 357.786 178.551 359.587 180.089 361.286V361.298ZM139.432 342.457C162.139 344.398 170.883 332.593 191.734 330.819C192.739 330.59 193.783 330.598 194.785 330.842C195.786 331.087 196.717 331.561 197.503 332.228C198.419 333.811 198.679 335.689 198.228 337.461C197.777 339.232 196.65 340.757 195.089 341.709C193.089 343.227 190.955 344.56 188.713 345.695C188.713 345.695 169.878 356.211 164.574 359.352C164.367 359.482 164.202 359.669 164.098 359.889C163.994 360.11 163.955 360.356 163.985 360.598C164.017 360.841 164.117 361.069 164.275 361.256C164.433 361.443 164.641 361.58 164.875 361.651C187.386 368.045 213.948 357.062 217.116 370.034C217.143 371.833 216.625 373.598 215.63 375.098C214.634 376.597 213.209 377.76 211.54 378.434C207.629 380.101 203.54 381.316 199.353 382.055C172.271 388.787 174.749 388.117 173.21 388.63C165.437 391.237 165.292 397.957 169.667 400.558C178.566 406.84 186.803 408.256 195.88 418.636C197.198 419.846 198.128 421.421 198.544 423.162C198.572 424.806 198.161 426.428 197.353 427.861C196.544 429.293 195.368 430.483 193.945 431.309C191.916 432.222 189.694 432.625 187.473 432.483C170.575 432.449 160.965 422.281 131.726 421.336C121.108 420.766 112.746 420.881 101.902 420.018C106.482 383.694 105.96 364.095 110.725 336.691C119.97 339.97 129.637 341.912 139.432 342.457ZM41.4321 233.902C39.8614 246.185 37.4498 258.346 34.2144 270.298C25.5724 259.001 19.2086 245.498 12.9082 233.748L41.4321 233.902ZM75.3602 473.761C78.1024 478.516 79.9053 483.754 80.6708 489.189C81.392 498.697 76.3378 507.221 70.0072 513.908C45.6655 538.28 7.08456 549.616 -25.4163 558.85C-29.3993 560.226 -33.5452 561.074 -37.7485 561.369C-38.675 561.387 -39.6009 561.312 -40.5125 561.146C-42.4927 560.409 -44.282 559.237 -45.7478 557.715C-52.9559 549.976 -58.8878 541.141 -63.3213 531.539C-65.9823 526.427 -67.9199 520.969 -69.0786 515.323C-69.6717 512.417 -69.2428 509.394 -67.8644 506.767C-66.486 504.14 -64.2427 502.07 -61.5139 500.906C-57.2951 498.675 -52.9109 496.773 -48.4001 495.215C-44.571 493.77 -32.1723 489.316 -29.8459 488.411C-28.9557 488.064 -28.4669 486.618 -29.5441 486.111C-36.5478 482.934 -43.1842 479.002 -49.3355 474.386C-55.3644 470.006 -60.3599 464.357 -63.9701 457.838C-65.5968 454.69 -66.6715 451.286 -67.1474 447.775C-41.0225 448.197 19.9992 437.7 43.7857 432.6C56.3685 444.612 67.0191 458.496 75.3602 473.761ZM90.2029 418.931C88.664 419.308 56.0334 427.232 49.9563 428.65C22.4976 435.062 -40.0871 445.593 -67.3285 445.189V258.035C-67.378 254.81 -66.7826 251.607 -65.5773 248.615C-64.372 245.623 -62.581 242.902 -60.3095 240.612C-58.038 238.322 -55.3318 236.508 -52.3499 235.278C-49.3679 234.048 -46.1702 233.426 -42.9446 233.449C-28.5708 235.124 -14.8974 240.577 -3.31655 249.255C19.8332 267.634 34.4286 296.405 84.859 323.363C86.2863 324.123 87.5566 321.954 86.1294 321.19C76.7624 316.185 67.7521 310.539 59.1625 304.293C15.3252 272.365 10.1955 245.012 -29.6075 233.516L9.86664 233.727C17.5822 247.987 23.3787 260.884 33.0436 272.954C33.5505 273.587 33.9488 274.284 34.8541 274.239C35.1264 274.232 35.3895 274.139 35.6061 273.974C35.8228 273.809 35.9819 273.579 36.061 273.319C39.7927 260.42 42.4948 247.246 44.1417 233.92L65.4418 234.035C68.625 234.012 71.7814 234.617 74.7309 235.814C77.6804 237.011 80.3652 238.778 82.632 241.012C84.8988 243.247 86.7032 245.907 87.9422 248.839C89.1811 251.771 89.8304 254.919 89.8529 258.102V324.371C89.7798 324.581 89.7812 324.809 89.8571 325.018C89.933 325.227 90.0786 325.403 90.2693 325.517C95.785 329.661 101.806 333.085 108.187 335.707C103.558 362.378 103.661 384.535 99.2492 419.794C92.5143 419.145 91.6785 418.485 90.2029 418.934V418.931ZM229.953 471.417H165.265C162.456 457.02 157.419 444.661 144.746 437.404C135.775 432.513 130.815 431.463 95.8998 421.952C114.409 424.215 132.764 422.033 150.597 426.01C165.289 429.287 169.266 433.14 184.715 434.872C187.39 435.169 190.096 435.017 192.72 434.423C195.034 433.76 197.085 432.396 198.592 430.519C200.099 428.643 200.988 426.345 201.136 423.943C201.121 420.12 198.242 417.332 195.747 414.779C188.505 407.311 182.675 405.661 173.345 399.906C171.976 399.061 169.697 398.078 169.368 396.31C169.299 395.497 169.46 394.68 169.834 393.955C170.208 393.23 170.778 392.624 171.481 392.209C173.949 390.773 173.14 391.168 197.304 385.163C202.14 384.204 206.897 382.882 211.534 381.207C218.368 383.643 225.488 385.187 232.717 385.803V416.949C231.476 418.086 212.08 437.878 205.234 444.486C204.434 445.2 203.84 446.115 203.514 447.136C203.188 448.157 203.141 449.247 203.379 450.292C203.617 451.337 204.13 452.3 204.866 453.079C205.602 453.858 206.533 454.427 207.563 454.724C208.888 454.972 210.24 455.044 211.585 454.941L230.782 454.981C230.242 460.68 230.046 465.756 229.953 471.417ZM209.286 452.428C208.363 452.44 207.473 452.087 206.808 451.447C206.144 450.806 205.759 449.929 205.738 449.006C205.701 447.002 207.114 446.13 209.102 444.139L234.337 418.862C247.369 418.862 326.257 418.986 332.669 418.989C303.868 447.618 305.005 447.298 299.996 449.996C297.47 451.275 294.726 452.066 291.907 452.328C289.843 452.515 224.171 452.377 209.286 452.428ZM301.116 494.002C300.666 496.814 299.924 502.409 299.695 505.604C299.031 510.785 299.453 516.05 300.935 521.059C295.8 526.538 289.315 530.571 282.13 532.752C258.944 540.516 240.96 530.006 235.828 514.044C235.26 511.692 234.871 509.3 234.663 506.89C233.221 495.964 232.472 484.959 232.421 473.939H297.993C298.316 473.925 298.621 473.787 298.844 473.553C299.068 473.319 299.192 473.007 299.191 472.684C299.193 472.36 299.069 472.048 298.845 471.813C298.622 471.579 298.316 471.44 297.993 471.426H232.439C232.523 465.937 232.813 460.46 233.311 454.996C256.084 455.032 288.88 455.059 291.333 454.896C294.985 454.658 298.543 453.64 301.768 451.912C305.758 449.376 309.363 446.281 312.473 442.721C310.98 446.921 309.7 451.194 308.638 455.524C306.828 462.793 301.164 493.7 301.116 494.002ZM436.901 424.698C437.22 448.116 419.004 457.751 411.252 466.604C400.875 478.48 395.746 507.514 387.01 522.988C382.321 530.277 375.203 535.671 366.917 538.214C357.937 540.869 348.492 541.563 339.22 540.25C333.137 539.545 327.143 538.213 321.333 536.276C313.125 533.289 303.424 525.332 302.205 515.758C301.062 505.025 304.354 489.612 306.517 478.36C309.136 464.781 311.366 451.025 316.924 438.249C320.5 434.664 333.599 421.581 336.574 418.636C337.072 417.878 336.939 418.744 336.939 412.703C344.246 407.931 350.452 401.656 355.143 394.297C355.158 399.222 356.514 404.05 359.066 408.262C359.946 409.706 361.106 410.96 362.478 411.951C363.849 412.942 365.405 413.649 367.053 414.031C370.503 414.855 374.129 414.519 377.368 413.073C380.608 411.627 383.28 409.153 384.97 406.035C385.297 408.033 386.042 409.939 387.158 411.629C388.274 413.318 389.736 414.752 391.446 415.835C394.416 417.478 397.859 418.053 401.202 417.465C404.545 416.877 407.585 415.161 409.816 412.604C412.148 409.221 413.054 405.056 412.339 401.011C419.468 403.509 426.801 405.383 434.254 406.611C435.92 412.498 436.813 418.578 436.904 424.698H436.901ZM478.743 346.018C478.5 356.675 477.276 367.287 475.086 377.719C472.796 387.038 467.095 395.159 459.109 400.48C444.773 408.79 427.025 403.195 411.231 398.017C410.907 397.935 410.563 397.982 410.272 398.147C410.127 398.231 410.001 398.343 409.901 398.476C409.8 398.609 409.727 398.761 409.686 398.923C409.385 400.051 411.111 405.811 408.561 410.048C406.91 412.44 404.412 414.115 401.572 414.734C399.086 415.547 396.388 415.423 393.988 414.384C391.587 413.345 389.649 411.464 388.54 409.094C387.269 405.935 386.694 402.539 386.853 399.137C386.844 398.895 386.764 398.661 386.625 398.464C386.485 398.266 386.291 398.113 386.066 398.024C385.842 397.934 385.596 397.911 385.358 397.958C385.121 398.005 384.903 398.12 384.729 398.289C384.494 398.51 384.354 398.814 384.34 399.137C384.235 400.998 383.762 402.819 382.949 404.496C382.135 406.172 380.996 407.671 379.599 408.904C377.78 410.238 375.674 411.128 373.45 411.502C361.199 414.303 356.534 401.153 357.841 388.872C357.831 388.6 357.735 388.339 357.567 388.125C357.399 387.912 357.167 387.758 356.905 387.686C356.643 387.616 356.365 387.632 356.112 387.731C355.859 387.831 355.644 388.008 355.499 388.238C352.678 394.205 348.71 399.56 343.822 403.995C339.73 407.918 334.727 412.522 328.695 412.667C327.453 412.734 326.214 412.482 325.097 411.934C323.98 411.386 323.021 410.561 322.313 409.538C321.097 407.382 320.634 404.881 320.998 402.432C321.345 399.743 322.021 397.109 323.013 394.587C326.058 386.512 330.859 375.387 336.266 364.669C338.955 359.328 341.528 353.181 347.268 350.514C352.409 348.425 357.943 347.479 363.486 347.741C384.753 348.737 395.01 351.015 415.582 353.613C415.916 353.612 416.235 353.479 416.47 353.243C416.706 353.007 416.838 352.688 416.838 352.354C415.776 339.783 415.978 327.137 417.441 314.606C436.587 314.19 457.974 313.113 476.999 311.779C478.598 323.117 479.182 334.576 478.743 346.018ZM416.349 312.144C416.077 312.146 415.813 312.235 415.596 312.398C415.379 312.561 415.219 312.789 415.142 313.049C413.548 325.612 413.245 338.305 414.237 350.93C394.973 348.438 387.852 346.664 365.442 345.351C359.419 344.85 353.36 345.634 347.663 347.65C342.838 349.549 338.963 353.284 336.888 358.036C336.761 355.305 335.567 352.733 333.562 350.874C331.558 349.014 328.903 348.017 326.17 348.097H317.953C317.005 340.36 315.618 332.684 313.801 325.104C313.718 324.849 313.557 324.626 313.34 324.467C313.124 324.308 312.863 324.222 312.594 324.22C312.326 324.22 312.064 324.306 311.847 324.464C311.631 324.622 311.469 324.845 311.387 325.101C311.131 325.864 310.805 326.61 310.506 327.349C306.753 325.557 302.961 323.847 299.133 322.219C299.133 322.219 259.647 304.097 259.37 303.976C264.125 294.544 269.538 285.46 275.57 276.789C282.378 266.759 290.285 257.522 299.145 249.249C304.789 243.453 311.505 238.809 318.919 235.574C331.571 230.415 344.981 227.357 358.619 226.521C358.548 229.898 359.152 233.255 360.396 236.394C360.95 237.792 361.842 239.03 362.993 239.997C364.144 240.964 365.518 241.63 366.99 241.934C373.175 242.616 375.84 232.158 376.615 225.996C408.654 226.561 438.029 238.437 457.872 262.936C466.487 274.058 473.231 288.192 476.607 309.302C455.85 310.792 433.005 311.806 416.349 312.144Z" fill="black"/>
<path d="M85.8299 417.576C52.8282 411.508 22.9344 394.946 6.22684 378.326C-12.0105 360.073 -24.0199 336.024 -50.0997 334.552C-51.717 334.464 -51.714 336.966 -50.0997 337.068C-30.4863 338.492 -19.6567 352.427 -6.97142 367.421C-0.795929 375.142 6.1947 382.174 13.8791 388.395C34.8339 404.373 59.2525 415.199 85.163 419.999C86.7442 420.295 87.4201 417.869 85.8269 417.576H85.8299Z" fill="black"/>
<path d="M29.5025 187.111C22.5624 183.71 15.6796 186.205 12.2669 194.787C10.8941 197.604 10.3629 200.758 10.7371 203.869C10.9901 204.933 11.4537 205.935 12.1005 206.816C12.7473 207.697 13.5642 208.439 14.5028 208.999C16.0804 210.145 17.9042 210.905 19.8283 211.219C21.7524 211.533 23.7234 211.392 25.5833 210.808C27.4433 210.224 29.1407 209.212 30.5396 207.855C31.9385 206.497 33.0001 204.83 33.6394 202.988C34.6412 200.113 34.9671 197.041 34.5869 194.018C34.3706 192.538 33.7937 191.134 32.9071 189.929C32.0205 188.725 30.8513 187.757 29.5025 187.111ZM31.7626 200.327C31.5279 201.923 30.9089 203.439 29.9587 204.743C29.0086 206.047 27.7559 207.1 26.3083 207.813C24.8607 208.525 23.2617 208.875 21.6489 208.833C20.036 208.79 18.4576 208.357 17.0496 207.569C15.4206 206.897 14.1123 205.624 13.3954 204.014C12.8299 201.095 13.2927 198.07 14.705 195.454C15.7218 192.59 17.7764 190.213 20.4623 188.791C22.4851 187.972 24.7364 187.912 26.7996 188.625C28.8627 189.337 30.598 190.773 31.6841 192.666C32.4385 195.158 32.4656 197.816 31.7626 200.324V200.327Z" fill="black"/>
<path d="M45.4725 179.947C47.6511 175.439 42.5818 169.525 35.7896 170.647L38.0677 168.909C40.02 167.425 42.2227 165.838 41.7098 163.058C41.4248 161.896 40.7768 160.855 39.8598 160.086C38.9427 159.317 37.8045 158.861 36.6103 158.783C34.1262 158.57 31.6348 159.1 29.4529 160.307C28.0046 161.091 28.0679 161.326 28.246 160.856C29.5404 157.422 28.7197 153.237 25.0837 152.368C21.3994 151.816 18.9553 154.905 18.0048 158.478C16.7037 162.415 15.6198 166.42 14.758 170.475C14.2119 172.286 13.9433 174.169 13.9705 176.058C14.168 177.778 14.9777 179.371 16.2518 180.544C17.5259 181.717 19.1794 182.393 20.9106 182.449C27.1355 182.602 33.3847 182.687 39.6187 182.449C41.8124 182.379 44.3711 182.219 45.4725 179.947ZM20.9136 179.947C19.8271 179.904 18.7897 179.484 17.9796 178.758C17.1696 178.033 16.6375 177.048 16.4749 175.973C16.4357 174.57 16.6258 173.167 17.0422 171.824C17.9263 167.048 19.2236 162.357 20.9196 157.805C21.12 157.187 21.4447 156.616 21.8739 156.128C22.303 155.639 22.8275 155.244 23.415 154.966C23.6665 154.866 23.9356 154.818 24.206 154.826C24.4764 154.833 24.7425 154.895 24.9884 155.007C25.2343 155.12 25.4547 155.281 25.6365 155.482C25.8183 155.682 25.9577 155.917 26.0462 156.173C26.4989 157.675 26.357 159.296 25.657 160.699C24.9992 162.509 24.269 164.32 23.575 166.13C23.0529 167.485 25.1682 168.294 25.8712 167.099C28.8887 162.008 35.0352 160.237 37.9229 161.809C38.36 162.039 38.7195 162.392 38.9563 162.826C39.1931 163.259 39.2965 163.752 39.2536 164.244C39.0212 165.322 37.7449 166.055 36.9392 166.658L29.5012 172.322C29.243 172.479 29.0498 172.724 28.9568 173.011C28.8639 173.299 28.8773 173.611 28.9946 173.889C29.112 174.168 29.3255 174.395 29.5962 174.529C29.867 174.664 30.177 174.696 30.4698 174.621C33.4697 173.132 36.8999 172.753 40.1528 173.55C41.3537 174.033 42.3615 174.905 43.0133 176.024C43.3223 176.333 43.5343 176.726 43.6232 177.154C43.7121 177.581 43.6741 178.026 43.5138 178.432C43.3535 178.839 43.078 179.19 42.721 179.442C42.3641 179.693 41.9413 179.836 41.5046 179.851C34.6498 180.32 27.772 180.348 20.9136 179.935V179.947Z" fill="black"/>
<path d="M197.987 483.429C197.672 483.444 197.373 483.576 197.15 483.799C196.927 484.022 196.795 484.321 196.78 484.636V595.605C180.89 599.072 146.359 604.356 130.303 606.71C129.982 606.8 129.711 607.014 129.546 607.303C129.382 607.593 129.338 607.936 129.425 608.258C129.521 608.574 129.735 608.842 130.023 609.006C130.311 609.169 130.651 609.216 130.973 609.136C142.204 607.497 182.571 601.314 198.062 597.902C215.364 600.551 247.476 606.616 264.748 609.971C266.329 610.273 267.005 607.859 265.415 607.557C259.875 606.48 204.662 596.393 199.306 595.569V484.645C199.295 484.394 199.211 484.152 199.063 483.949C198.915 483.747 198.711 483.592 198.476 483.505C198.32 483.447 198.153 483.421 197.987 483.429Z" fill="black"/>
<path d="M206.441 127.767C206.11 127.774 205.794 127.908 205.56 128.143C205.326 128.378 205.192 128.694 205.186 129.025V163.122C205.188 163.454 205.321 163.773 205.556 164.008C205.791 164.243 206.109 164.377 206.441 164.38H223.2C223.532 164.375 223.85 164.241 224.085 164.006C224.32 163.771 224.454 163.454 224.458 163.122V129.025C224.453 128.693 224.319 128.376 224.084 128.141C223.849 127.906 223.532 127.772 223.2 127.767H206.441ZM221.945 161.864H207.699V130.271H221.945V161.864Z" fill="black"/>
<path d="M234.575 117.598C234.243 117.603 233.926 117.737 233.691 117.972C233.457 118.207 233.324 118.524 233.32 118.856V163.128C233.322 163.46 233.455 163.779 233.69 164.014C233.925 164.249 234.242 164.383 234.575 164.386H251.934C252.266 164.382 252.584 164.248 252.819 164.013C253.054 163.778 253.188 163.46 253.192 163.128V118.85C253.187 118.518 253.053 118.201 252.818 117.966C252.583 117.732 252.266 117.597 251.934 117.592L234.575 117.598ZM250.676 161.879H235.833V120.102H250.676V161.876V161.879Z" fill="black"/>
<path d="M268.691 94.8463C268.359 94.8518 268.042 94.9861 267.807 95.2209C267.572 95.4557 267.438 95.7726 267.432 96.1046V163.128C267.439 163.46 267.573 163.776 267.808 164.011C268.043 164.245 268.359 164.38 268.691 164.386H290.238C290.571 164.382 290.888 164.247 291.123 164.012C291.358 163.778 291.492 163.46 291.497 163.128V96.1046C291.491 95.7726 291.357 95.4557 291.122 95.2209C290.887 94.9861 290.57 94.8518 290.238 94.8463H268.691ZM288.98 161.873H269.946V97.3598H288.98V161.873Z" fill="black"/>
<path d="M295.782 64.0261C285.892 68.4872 275.638 72.0911 265.131 74.7983C264.839 74.9103 264.599 75.1272 264.458 75.4067C264.317 75.6862 264.285 76.0082 264.369 76.3098C264.452 76.6114 264.646 76.871 264.91 77.0379C265.175 77.2048 265.493 77.2669 265.801 77.2123C272.281 75.5099 278.672 73.4857 284.95 71.1472C250.98 90.4054 215.362 106.6 178.519 119.538C177.01 120.069 177.656 122.495 179.185 121.952C208.754 111.561 237.552 99.0969 265.367 84.6533C275.212 79.5236 281.244 76.0355 285.936 73.4887C281.561 77.7343 277.119 81.9074 272.385 85.7335C271.127 86.7504 272.916 88.5216 274.165 87.5108C282.524 80.7517 290.263 72.6891 297.004 66.2046C297.517 65.7339 297.762 63.1782 295.782 64.0261Z" fill="black"/>
<path d="M418.637 123.361L403.04 152.138C402.267 153.563 404.437 154.833 405.209 153.409L420.809 124.625C421.582 123.207 419.409 121.934 418.637 123.358V123.361Z" fill="black"/>
<path d="M414.141 159.495L437.616 142.619C438.92 141.683 437.665 139.502 436.349 140.446L412.873 157.326C411.573 158.261 412.825 160.446 414.141 159.495Z" fill="black"/>
<path d="M0.27029 418.557C-12.3949 412.468 -23.1999 403.101 -31.0236 391.427C-31.9288 390.088 -34.0983 391.346 -33.1961 392.695C-25.1557 404.743 -14.0397 414.422 -1.00005 420.73C0.451344 421.43 1.72771 419.26 0.27029 418.557Z" fill="black"/>
<path d="M364.274 254.098C363.996 252.803 362.228 253.011 361.86 254.098C360.728 257.344 343.921 305.464 343.453 306.903C343.043 308.206 344.359 309.45 345.046 310.463C356.67 327.482 355.951 326.516 356.235 326.715C356.396 326.897 356.61 327.023 356.847 327.075C357.085 327.126 357.332 327.101 357.554 327.002C357.7 326.935 357.831 326.837 357.937 326.715C361.597 322.461 372.906 310.119 374.75 308.077C375.221 307.552 375.625 307.135 375.48 306.333C375.489 306.287 364.283 254.14 364.274 254.101V254.098ZM357.189 323.8C353.869 318.933 346.38 307.971 345.961 307.355L362.774 259.076L372.922 306.351L357.189 323.8Z" fill="black"/>
<path d="M26.7566 199.763C26.4769 199.609 26.1489 199.568 25.8401 199.649C25.5313 199.73 25.2653 199.926 25.097 200.197C24.412 201.35 23.365 202.409 22.5623 201.335C22.2446 200.822 22.0533 200.24 22.0041 199.639C21.7386 198.046 19.3186 198.734 19.5902 200.303C19.6353 201.252 19.9985 202.16 20.6212 202.878C21.244 203.597 22.0903 204.085 23.024 204.265C23.9236 204.252 24.8012 203.984 25.554 203.491C26.3069 202.999 26.904 202.302 27.2756 201.482C27.3557 201.336 27.4058 201.175 27.423 201.008C27.4402 200.842 27.4242 200.674 27.3759 200.514C27.3276 200.354 27.248 200.205 27.1417 200.076C27.0354 199.947 26.9045 199.84 26.7566 199.763Z" fill="black"/>
<path d="M178.841 586.653C164.181 579.921 148.389 575.995 132.282 575.078C114.947 574.573 97.7761 578.561 82.4372 586.653C82.2064 586.797 82.0279 587.012 81.928 587.266C81.8281 587.52 81.812 587.798 81.882 588.062C81.9533 588.325 82.1074 588.558 82.3216 588.726C82.5358 588.895 82.7985 588.99 83.0709 588.997C171.364 590.135 177.867 588.997 178.223 588.997C179.369 588.997 180.033 587.178 178.841 586.653ZM88.4902 586.484C98.9219 581.725 110.086 578.774 121.507 577.757C138.771 576.886 156.013 579.863 171.986 586.472L88.4902 586.484Z" fill="black"/>
<path d="M280.009 567.848H375.161C376.323 567.848 376.971 566.037 375.798 565.509C356.549 556.731 332.346 551.511 311.701 554.891C303.174 551.6 294.309 549.263 285.268 547.924C267.919 545.006 250.099 547.018 233.836 553.729C230.363 555.066 226.968 556.599 223.667 558.319C223.438 558.464 223.26 558.678 223.161 558.931C223.062 559.184 223.046 559.462 223.115 559.725C223.186 559.988 223.341 560.221 223.556 560.389C223.769 560.558 224.032 560.653 224.304 560.66H290.259C286.539 562.048 282.912 563.666 279.396 565.509C279.168 565.653 278.992 565.865 278.893 566.116C278.794 566.367 278.777 566.642 278.845 566.903C278.914 567.164 279.063 567.396 279.272 567.566C279.482 567.736 279.74 567.835 280.009 567.848ZM229.729 558.144C243.432 551.816 258.421 548.771 273.506 549.251C284.867 549.915 296.089 552.106 306.864 555.772C303.749 556.422 300.665 557.214 297.622 558.144H229.729ZM329.223 556.442C342.859 557.211 356.276 560.214 368.939 565.331H285.446C299.144 558.991 314.137 555.948 329.223 556.445V556.442Z" fill="black"/>
<path d="M452.154 428.943C452.15 428.611 452.016 428.293 451.781 428.058C451.546 427.823 451.228 427.689 450.895 427.685C450.564 427.69 450.247 427.825 450.013 428.06C449.778 428.294 449.645 428.611 449.64 428.943C447.775 445.102 440.062 460.02 427.957 470.886C419.33 478.64 416.584 478.127 416.472 479.672C416.285 479.812 416.146 480.006 416.071 480.228C415.997 480.449 415.992 480.688 416.056 480.912C422.291 506.257 427.803 531.774 432.586 557.432C432.887 559.022 435.301 558.337 434.999 556.765C430.247 531.284 424.778 505.943 418.597 480.771C427.837 475.338 435.681 467.824 441.507 458.827C447.332 449.83 450.978 439.597 452.154 428.943Z" fill="black"/>
<path d="M332.64 439.61C332.359 439.459 332.032 439.42 331.724 439.502C331.416 439.583 331.15 439.778 330.98 440.047L325.612 449.296C325.528 449.438 325.473 449.596 325.45 449.759C325.427 449.923 325.437 450.089 325.479 450.249C325.521 450.409 325.594 450.559 325.694 450.691C325.794 450.822 325.919 450.933 326.062 451.016C326.35 451.183 326.693 451.23 327.016 451.146C327.339 451.061 327.615 450.853 327.785 450.566L333.15 441.315C333.307 441.02 333.343 440.676 333.249 440.355C333.15 440.037 332.932 439.77 332.64 439.61Z" fill="black"/>
<path d="M149.299 456.32C147.729 453.216 146.158 450.111 144.589 447.006C143.859 445.56 141.689 446.831 142.417 448.273C143.989 451.377 145.559 454.482 147.127 457.588C147.857 459.033 150.027 457.763 149.299 456.32Z" fill="black"/>
<path d="M71.9342 492.418C72.1041 492.704 72.3796 492.912 72.7014 492.997C73.0232 493.081 73.3654 493.036 73.6541 492.871C73.935 492.696 74.1384 492.42 74.2226 492.101C74.3067 491.781 74.2653 491.441 74.1068 491.151L70.0121 481.534C69.8422 481.247 69.5661 481.039 69.2436 480.954C68.921 480.869 68.5781 480.915 68.2891 481.081C68.0082 481.256 67.805 481.532 67.7213 481.852C67.6377 482.172 67.68 482.512 67.8395 482.801C69.2125 486.006 70.5794 489.21 71.9342 492.418Z" fill="black"/>
<path d="M286.621 380.133C286.552 377.024 286.531 373.913 286.558 370.803C288.8 370.909 291.051 371.165 293.278 371.337C294.892 371.464 294.883 368.947 293.278 368.824C291.051 368.652 288.818 368.444 286.588 368.326C286.588 367.369 286.588 366.413 286.621 365.456C286.621 365.123 286.489 364.803 286.253 364.567C286.017 364.331 285.697 364.198 285.363 364.198C285.029 364.198 284.709 364.331 284.473 364.567C284.237 364.803 284.105 365.123 284.105 365.456C284.083 366.392 284.105 367.327 284.074 368.263C275.324 368.32 272.659 375.806 276.335 379.445C278.1 381.192 280.559 381.219 284.147 382.046C284.262 385.969 284.473 389.87 284.75 393.778C282.125 393.502 279.623 392.522 277.509 390.942C276.199 389.988 274.944 392.167 276.238 393.111C278.781 394.956 281.782 396.065 284.913 396.316C284.95 396.801 284.974 397.293 285.013 397.782C285.143 399.381 287.656 399.396 287.526 397.782C287.487 397.287 287.463 396.789 287.427 396.295C297.472 395.223 297.68 383.7 286.621 380.133ZM278.737 378.108C278.357 377.868 278.032 377.55 277.782 377.177C277.532 376.803 277.362 376.381 277.285 375.938C277.207 375.496 277.223 375.041 277.331 374.605C277.439 374.169 277.638 373.76 277.913 373.404C278.65 372.508 279.592 371.801 280.659 371.343C281.725 370.885 282.886 370.69 284.044 370.773C284.023 373.676 284.041 376.579 284.099 379.484C282.25 379.309 280.441 378.845 278.737 378.108ZM287.249 393.784C286.998 390.124 286.812 386.461 286.691 382.795C287.962 383.137 289.13 383.788 290.09 384.69C291.05 385.591 291.773 386.716 292.194 387.963C293.115 390.721 291.135 393.522 287.249 393.784Z" fill="black"/>
<path d="M233.351 429.933H307.278C307.601 429.919 307.906 429.78 308.13 429.546C308.353 429.312 308.477 429.001 308.476 428.677C308.478 428.354 308.354 428.041 308.131 427.807C307.907 427.572 307.602 427.433 307.278 427.419H233.351C233.027 427.433 232.722 427.572 232.498 427.807C232.275 428.041 232.151 428.354 232.153 428.677C232.155 429 232.28 429.31 232.503 429.543C232.725 429.776 233.029 429.916 233.351 429.933Z" fill="black"/>
<path d="M297.113 440.307C297.101 439.991 296.97 439.69 296.746 439.467C296.522 439.243 296.222 439.112 295.906 439.1H222.884C222.562 439.118 222.258 439.258 222.035 439.491C221.813 439.725 221.688 440.035 221.686 440.358C221.688 440.681 221.813 440.99 222.036 441.224C222.258 441.457 222.562 441.596 222.884 441.613H295.906C296.238 441.598 296.551 441.452 296.777 441.207C297.003 440.963 297.124 440.64 297.113 440.307Z" fill="black"/>
<path d="M181.581 257.96C186.813 256.195 191.515 253.138 195.251 249.071C198.986 245.004 201.633 240.059 202.947 234.696C203.316 233.117 200.893 232.448 200.533 234.023C199.342 238.971 196.919 243.538 193.49 247.299C190.062 251.061 185.737 253.894 180.92 255.537C179.384 256.041 180.039 258.467 181.581 257.96Z" fill="black"/>
<path d="M145.559 362.258L155.858 360.749C156.177 360.657 156.447 360.444 156.611 360.155C156.775 359.867 156.82 359.525 156.736 359.204C156.641 358.887 156.427 358.619 156.14 358.455C155.852 358.292 155.512 358.246 155.191 358.326L144.889 359.835C144.569 359.925 144.297 360.137 144.132 360.427C143.968 360.716 143.924 361.059 144.011 361.38C144.108 361.697 144.322 361.965 144.61 362.128C144.898 362.292 145.238 362.338 145.559 362.258Z" fill="black"/>
<path d="M146.105 394.722C145.865 394.735 145.633 394.817 145.438 394.957C145.242 395.097 145.091 395.29 145.001 395.513C144.912 395.736 144.888 395.98 144.933 396.217C144.978 396.453 145.089 396.672 145.254 396.847C145.477 397.082 145.782 397.221 146.105 397.236H156.422C156.745 397.223 157.051 397.084 157.274 396.85C157.498 396.616 157.621 396.304 157.62 395.981C157.618 395.658 157.494 395.347 157.271 395.113C157.048 394.879 156.744 394.739 156.422 394.722H146.105Z" fill="black"/>
<path d="M31.0474 382.592C32.4777 383.35 33.7631 381.18 32.3148 380.423C28.6164 378.482 25.3813 375.764 22.831 372.457C22.6553 372.176 22.3791 371.973 22.0588 371.89C21.7385 371.806 21.3984 371.848 21.108 372.007C20.8207 372.176 20.6118 372.452 20.527 372.774C20.4422 373.096 20.4883 373.439 20.6554 373.727C23.4371 377.4 26.984 380.425 31.0505 382.592H31.0474Z" fill="black"/>
<path d="M360.678 369.907C359.456 373.286 358.237 376.672 357.018 380.058C356.466 381.584 358.895 382.239 359.432 380.724L363.092 370.577C363.65 369.05 361.224 368.392 360.678 369.907Z" fill="black"/>
<path d="M389.547 380.115C388.894 383.53 387.763 386.837 386.188 389.937C385.452 391.373 387.621 392.652 388.358 391.204C390.047 387.918 391.266 384.409 391.979 380.785C392.277 379.21 389.854 378.519 389.547 380.115Z" fill="black"/>
<path d="M418.145 353.963C425.176 354.578 432.155 355.677 439.035 357.246C440.61 357.605 441.283 355.182 439.702 354.832C432.602 353.214 425.4 352.087 418.145 351.458C416.528 351.308 416.543 353.821 418.145 353.963Z" fill="black"/>
<path d="M458.348 397.145C460.983 395.388 463.372 393.289 465.454 390.902C466.51 389.695 464.739 387.885 463.677 389.125C461.749 391.361 459.529 393.328 457.078 394.973C455.753 395.869 456.996 398.051 458.348 397.145Z" fill="black"/>
<path d="M249.788 340.312L249.396 331.936C249.321 330.328 246.807 330.318 246.883 331.936L247.275 340.312C247.35 341.924 249.864 341.933 249.788 340.312Z" fill="black"/>
<path d="M310.846 300.5C310.838 300.169 310.703 299.853 310.468 299.619C310.234 299.385 309.919 299.25 309.588 299.241C309.34 299.242 309.097 299.316 308.89 299.454C308.684 299.592 308.522 299.788 308.426 300.017C308.364 300.17 308.332 300.334 308.333 300.5C309.126 307.425 310.077 314.329 311.184 321.211C311.275 321.532 311.489 321.804 311.778 321.968C312.068 322.132 312.411 322.176 312.732 322.089C313.049 321.995 313.318 321.781 313.481 321.493C313.645 321.205 313.691 320.866 313.61 320.545C312.539 313.882 311.619 307.201 310.846 300.5Z" fill="black"/>
</g>
</svg>
