<svg id="Layer_1" data-name="Layer 1" xmlns="http://www.w3.org/2000/svg" viewBox="0 0 50 50"><defs><style>.cls-1{fill:none;}.cls-2{fill:#1268c0;}</style></defs><rect class="cls-1" width="50" height="50"/><path class="cls-2" d="M16,16.1a11.5,11.5,0,0,1,8.2-3.2c1.7,0,3.4-.2,5.6,1.1l2,1.5,2.8-3.3a3,3,0,0,0-1.2-4.5l-3.7,3,2.7-6.3S24.7.1,16.8,4.5l2.5,8.1c-1-1.6-3.8-5.4-3.8-5.4-3,.8-4.4,3-3.1,4.6Zm24.6,16c-3-8-6.7-18.4-16.8-17.6S12,23.8,9.7,32.1,4.2,47.5,23.8,47.5,43.7,40,40.6,32.1Zm-9.7-5.7a.5.5,0,0,1-.5.5H27.7a3.7,3.7,0,0,1,.5,1.1h2.2a.4.4,0,0,1,.4.4h0v1.5a.4.4,0,0,1-.4.4h-2A4.9,4.9,0,0,1,23.3,35l5.5,5.1a.5.5,0,0,1,.1.6l-.4.2H25.3l-6-5.6c-.1-.1-.2-.2-.2-.3v-2a.5.5,0,0,1,.5-.3h3a2.6,2.6,0,0,0,2.8-2.2H19.6a.5.5,0,0,1-.5-.4V28.5a.5.5,0,0,1,.5-.4h5.3a2.7,2.7,0,0,0-2.2-1H19.6a.5.5,0,0,1-.5-.4V25a.5.5,0,0,1,.5-.4H30.4a.4.4,0,0,1,.4.4h0Z"/></svg>