<svg id="Layer_1" data-name="Layer 1" xmlns="http://www.w3.org/2000/svg" viewBox="0 0 50 50"><defs><style>.cls-1{fill:none;}.cls-2{fill:#1268c0;}</style></defs><rect class="cls-1" width="50" height="50"/><path class="cls-2" d="M10.5,45.8a1.8,1.8,0,0,1-3.6,0h0V35.2a2,2,0,0,1-1.8-.7,19.6,19.6,0,0,1-1.7-3.2l-.9-3.2a2.8,2.8,0,0,1,.1-.9h0c.5-1.5,1.1-3,1.7-4.4a20.6,20.6,0,0,1,2.5-4A2.3,2.3,0,0,1,8,18.2h.8c1,1.1,3.6,1.6,4.8.4h.1A1.7,1.7,0,0,1,15,20.2a24.1,24.1,0,0,0,1.2,6.5,20.5,20.5,0,0,0,2.6,5.1,1.9,1.9,0,0,1-.6,2.5,1.7,1.7,0,0,1-2.4-.6,14.9,14.9,0,0,1-1.8-3v1.2l1.5,6.9a.9.9,0,0,1,.1.5v6.5a1.8,1.8,0,1,1-3.6,0V39.5l-.9-4.3h-.7V45.8ZM25.1,2.3a4.1,4.1,0,0,0-4,4.2c0,2.3,1.9,5.1,4.1,5s4-2.8,3.9-5.2a4,4,0,0,0-4-4ZM20.2,34.1l.7,11.7h0a1.8,1.8,0,0,0,1.8,1.8h.4a1.8,1.8,0,0,0,1.7-1.8h0V32.5h.7V45.8a1.8,1.8,0,0,0,1.8,1.8h.4A1.7,1.7,0,0,0,29.4,46l.4-6.8v-5a3.8,3.8,0,0,1,.5-1.9v-.5a2.8,2.8,0,0,1,.3-1.3A66.2,66.2,0,0,0,33,24.3l.6-2.8L33,15a7.2,7.2,0,0,1-1.1-1.5h0l-3.7-1.3h-.4L26.2,16l-.5-1.7.4-1-.9-.3-.9.3.3,1L24.2,16l-1.7-3.9h-.4l-3.5,1.3a1.7,1.7,0,0,0-1.2,1.6l-.7,7.2a13.7,13.7,0,0,0,.9,4A21.6,21.6,0,0,0,20,31.1a2.9,2.9,0,0,1,.2,3M35.3,6.2a4.1,4.1,0,0,0-2.6,5.1c.6,2.2,3.1,4.4,5.2,3.8s3-3.8,2.4-6a4,4,0,0,0-4.9-2.9ZM32.6,47a.6.6,0,0,1-.6.7.6.6,0,0,1-.8-.6h0V34.1a2.1,2.1,0,0,1,.7-1.5,2.2,2.2,0,0,1-.1-1.6c2.7-6.2,2.7-6.4,3.9-13.1a1.6,1.6,0,0,1,.8-1.4l1.6,2.2,1.1-2.4c.3-.7.4-1,1.1-1.3a1.7,1.7,0,0,1,2,.5A19.8,19.8,0,0,1,45.9,20a11.8,11.8,0,0,1,1.6,6.1,17.5,17.5,0,0,1-.4,3.2c-.3,1.2-.7,2.3-1.1,3.5a2.4,2.4,0,0,1-1,1V45.9a1.8,1.8,0,0,1-1.8,1.7h0a1.8,1.8,0,0,1-1.7-1.7l-.7-13.2h-.4l-.7,5.7L39.3,46a1.9,1.9,0,0,1-1.9,1.7h0a1.8,1.8,0,0,1-1.6-1.9V38.3c0-2.7.2-5.6.3-8.3l-1,2.4c-.1.1-.1.3-.2.4a2.4,2.4,0,0,1,.5,1.4v.5a.7.7,0,1,1-1.4-.4h0a.8.8,0,0,0-.2-.5.7.7,0,0,0-1,0,.8.8,0,0,0-.2.5V47ZM8.3,33.4a3.2,3.2,0,0,0,2.1-6h-1A2.9,2.9,0,0,0,7,28.4V25.6a21.8,21.8,0,0,0-.9,2.3A17.2,17.2,0,0,0,6.8,30,9,9,0,0,0,8,32.4a1.9,1.9,0,0,1,.3,1M12.1,10a3.5,3.5,0,0,0-3.8,3.1c-.2,2,1.1,4.5,3,4.7s3.6-2,3.8-4a3.4,3.4,0,0,0-3-3.8Z"/></svg>