<svg id="Layer_1" data-name="Layer 1" xmlns="http://www.w3.org/2000/svg" viewBox="0 0 50 50"><defs><style>.cls-1{fill:none;}.cls-2{fill:#1268c0;}</style></defs><rect class="cls-1" width="50" height="50"/><path class="cls-2" d="M26.1,34.2a1.3,1.3,0,0,0,1.3-1.3h0V30.6a1.2,1.2,0,0,0-1.2-1.2H23.9a1.2,1.2,0,0,0-1.3,1.2h0v2.3a1.3,1.3,0,0,0,1.3,1.3h2.2Zm-2.5-1.3V30.6c0-.1.1-.2.3-.2h2.2c.2,0,.2.1.2.2v2.3c.1.1,0,.2-.2.2H23.9c-.2,0-.3-.1-.3-.2ZM37.5,30c-3,1-6,2-8.7,2.6v.9a1.9,1.9,0,0,1-1.9,2H23.5a2,2,0,0,1-2-2v-.9c-3-.7-6-1.6-9-2.6a71.5,71.5,0,0,0-7.9-2.3,4.3,4.3,0,0,1-2.1-.9V40.4c0,1.9,1.1,3.4,2.4,3.4H45.1c1.3,0,2.4-1.5,2.4-3.4V26.8a6.7,6.7,0,0,1-2.1.9A71.5,71.5,0,0,0,37.5,30Zm7.6-16.9H40.8v-.6a.4.4,0,0,0-.4-.4H37.6a.4.4,0,0,0-.4.4h0v.6H12.7v-.6c0-.2-.1-.4-.3-.4H9.6a.4.4,0,0,0-.4.4h0v.6H4.9a2.5,2.5,0,0,0-2.4,2.6v7.7A2.7,2.7,0,0,0,4.9,26c3.8.7,10.2,3.3,15.3,4.6l.9.2V30a1.9,1.9,0,0,1,2-1.9h3.4a1.9,1.9,0,0,1,2,1.9h0v.9l1.3-.3c5.1-1.3,11.5-4,15.3-4.6a2.8,2.8,0,0,0,2.4-2.7V15.7A2.5,2.5,0,0,0,45.1,13.1ZM19.8,9H30.2v3.2h2.7V8.8a2.6,2.6,0,0,0-2.5-2.6H19.6a2.6,2.6,0,0,0-2.5,2.6v3.4h2.7Z"/></svg>